<?xml version="1.0" encoding="utf-8" standalone="no"?>
<!DOCTYPE svg PUBLIC "-//W3C//DTD SVG 1.1//EN"
  "http://www.w3.org/Graphics/SVG/1.1/DTD/svg11.dtd">
<svg height="152.346125pt" version="1.1" viewBox="0 0 214.165625 152.346125" width="214.165625pt" xmlns="http://www.w3.org/2000/svg" xmlns:xlink="http://www.w3.org/1999/xlink">
 <metadata>
  <rdf:RDF xmlns:cc="http://creativecommons.org/ns#" xmlns:dc="http://purl.org/dc/elements/1.1/" xmlns:rdf="http://www.w3.org/1999/02/22-rdf-syntax-ns#">
   <cc:Work>
    <dc:type rdf:resource="http://purl.org/dc/dcmitype/StillImage"/>
    <dc:date>2022-03-30T22:26:15.266482</dc:date>
    <dc:format>image/svg+xml</dc:format>
    <dc:creator>
     <cc:Agent>
      <dc:title>Matplotlib v3.4.1, https://matplotlib.org/</dc:title>
     </cc:Agent>
    </dc:creator>
   </cc:Work>
  </rdf:RDF>
 </metadata>
 <defs>
  <style type="text/css">*{stroke-linecap:butt;stroke-linejoin:round;}</style>
 </defs>
 <g id="figure_1">
  <g id="patch_1">
   <path d="M 0 152.346125 
L 214.165625 152.346125 
L 214.165625 0 
L 0 0 
z
" style="fill:#ffffff;"/>
  </g>
  <g id="axes_1">
   <g id="patch_2">
    <path d="M 46.765625 121.968 
L 214.165625 121.968 
L 214.165625 0 
L 46.765625 0 
z
" style="fill:#ffffff;"/>
   </g>
   <g id="PathCollection_1">
    <defs>
     <path d="M 0 1.936492 
C 0.513564 1.936492 1.006162 1.732451 1.369306 1.369306 
C 1.732451 1.006162 1.936492 0.513564 1.936492 0 
C 1.936492 -0.513564 1.732451 -1.006162 1.369306 -1.369306 
C 1.006162 -1.732451 0.513564 -1.936492 0 -1.936492 
C -0.513564 -1.936492 -1.006162 -1.732451 -1.369306 -1.369306 
C -1.732451 -1.006162 -1.936492 -0.513564 -1.936492 0 
C -1.936492 0.513564 -1.732451 1.006162 -1.369306 1.369306 
C -1.006162 1.732451 -0.513564 1.936492 0 1.936492 
z
" id="m62f7b2c928" style="stroke:#0000ff;"/>
    </defs>
    <g clip-path="url(#pc4befc724e)">
     <use style="fill:#0000ff;stroke:#0000ff;" x="55.135625" xlink:href="#m62f7b2c928" y="6.034816"/>
     <use style="fill:#0000ff;stroke:#0000ff;" x="71.875625" xlink:href="#m62f7b2c928" y="50.302316"/>
     <use style="fill:#0000ff;stroke:#0000ff;" x="88.615625" xlink:href="#m62f7b2c928" y="72.009095"/>
     <use style="fill:#0000ff;stroke:#0000ff;" x="105.355625" xlink:href="#m62f7b2c928" y="80.736661"/>
     <use style="fill:#0000ff;stroke:#0000ff;" x="122.095625" xlink:href="#m62f7b2c928" y="83.924953"/>
     <use style="fill:#0000ff;stroke:#0000ff;" x="138.835625" xlink:href="#m62f7b2c928" y="90.283664"/>
     <use style="fill:#0000ff;stroke:#0000ff;" x="155.575625" xlink:href="#m62f7b2c928" y="93.206101"/>
     <use style="fill:#0000ff;stroke:#0000ff;" x="172.315625" xlink:href="#m62f7b2c928" y="94.503573"/>
     <use style="fill:#0000ff;stroke:#0000ff;" x="189.055625" xlink:href="#m62f7b2c928" y="95.532144"/>
     <use style="fill:#0000ff;stroke:#0000ff;" x="205.795625" xlink:href="#m62f7b2c928" y="98.347221"/>
    </g>
   </g>
   <g id="matplotlib.axis_1">
    <g id="xtick_1">
     <g id="line2d_1">
      <defs>
       <path d="M 0 0 
L 0 3.5 
" id="mcb9e6da29a" style="stroke:#000000;stroke-width:0.8;"/>
      </defs>
      <g>
       <use style="stroke:#000000;stroke-width:0.8;" x="55.135625" xlink:href="#mcb9e6da29a" y="121.968"/>
      </g>
     </g>
     <g id="text_1">
      <!-- 1 -->
      <g transform="translate(51.954375 136.566438)scale(0.1 -0.1)">
       <defs>
        <path d="M 794 531 
L 1825 531 
L 1825 4091 
L 703 3866 
L 703 4441 
L 1819 4666 
L 2450 4666 
L 2450 531 
L 3481 531 
L 3481 0 
L 794 0 
L 794 531 
z
" id="DejaVuSans-31" transform="scale(0.015625)"/>
       </defs>
       <use xlink:href="#DejaVuSans-31"/>
      </g>
     </g>
    </g>
    <g id="xtick_2">
     <g id="line2d_2">
      <g>
       <use style="stroke:#000000;stroke-width:0.8;" x="71.875625" xlink:href="#mcb9e6da29a" y="121.968"/>
      </g>
     </g>
     <g id="text_2">
      <!-- 2 -->
      <g transform="translate(68.694375 136.566438)scale(0.1 -0.1)">
       <defs>
        <path d="M 1228 531 
L 3431 531 
L 3431 0 
L 469 0 
L 469 531 
Q 828 903 1448 1529 
Q 2069 2156 2228 2338 
Q 2531 2678 2651 2914 
Q 2772 3150 2772 3378 
Q 2772 3750 2511 3984 
Q 2250 4219 1831 4219 
Q 1534 4219 1204 4116 
Q 875 4013 500 3803 
L 500 4441 
Q 881 4594 1212 4672 
Q 1544 4750 1819 4750 
Q 2544 4750 2975 4387 
Q 3406 4025 3406 3419 
Q 3406 3131 3298 2873 
Q 3191 2616 2906 2266 
Q 2828 2175 2409 1742 
Q 1991 1309 1228 531 
z
" id="DejaVuSans-32" transform="scale(0.015625)"/>
       </defs>
       <use xlink:href="#DejaVuSans-32"/>
      </g>
     </g>
    </g>
    <g id="xtick_3">
     <g id="line2d_3">
      <g>
       <use style="stroke:#000000;stroke-width:0.8;" x="88.615625" xlink:href="#mcb9e6da29a" y="121.968"/>
      </g>
     </g>
     <g id="text_3">
      <!-- 3 -->
      <g transform="translate(85.434375 136.566438)scale(0.1 -0.1)">
       <defs>
        <path d="M 2597 2516 
Q 3050 2419 3304 2112 
Q 3559 1806 3559 1356 
Q 3559 666 3084 287 
Q 2609 -91 1734 -91 
Q 1441 -91 1130 -33 
Q 819 25 488 141 
L 488 750 
Q 750 597 1062 519 
Q 1375 441 1716 441 
Q 2309 441 2620 675 
Q 2931 909 2931 1356 
Q 2931 1769 2642 2001 
Q 2353 2234 1838 2234 
L 1294 2234 
L 1294 2753 
L 1863 2753 
Q 2328 2753 2575 2939 
Q 2822 3125 2822 3475 
Q 2822 3834 2567 4026 
Q 2313 4219 1838 4219 
Q 1578 4219 1281 4162 
Q 984 4106 628 3988 
L 628 4550 
Q 988 4650 1302 4700 
Q 1616 4750 1894 4750 
Q 2613 4750 3031 4423 
Q 3450 4097 3450 3541 
Q 3450 3153 3228 2886 
Q 3006 2619 2597 2516 
z
" id="DejaVuSans-33" transform="scale(0.015625)"/>
       </defs>
       <use xlink:href="#DejaVuSans-33"/>
      </g>
     </g>
    </g>
    <g id="xtick_4">
     <g id="line2d_4">
      <g>
       <use style="stroke:#000000;stroke-width:0.8;" x="105.355625" xlink:href="#mcb9e6da29a" y="121.968"/>
      </g>
     </g>
     <g id="text_4">
      <!-- 4 -->
      <g transform="translate(102.174375 136.566438)scale(0.1 -0.1)">
       <defs>
        <path d="M 2419 4116 
L 825 1625 
L 2419 1625 
L 2419 4116 
z
M 2253 4666 
L 3047 4666 
L 3047 1625 
L 3713 1625 
L 3713 1100 
L 3047 1100 
L 3047 0 
L 2419 0 
L 2419 1100 
L 313 1100 
L 313 1709 
L 2253 4666 
z
" id="DejaVuSans-34" transform="scale(0.015625)"/>
       </defs>
       <use xlink:href="#DejaVuSans-34"/>
      </g>
     </g>
    </g>
    <g id="xtick_5">
     <g id="line2d_5">
      <g>
       <use style="stroke:#000000;stroke-width:0.8;" x="122.095625" xlink:href="#mcb9e6da29a" y="121.968"/>
      </g>
     </g>
     <g id="text_5">
      <!-- 5 -->
      <g transform="translate(118.914375 136.566438)scale(0.1 -0.1)">
       <defs>
        <path d="M 691 4666 
L 3169 4666 
L 3169 4134 
L 1269 4134 
L 1269 2991 
Q 1406 3038 1543 3061 
Q 1681 3084 1819 3084 
Q 2600 3084 3056 2656 
Q 3513 2228 3513 1497 
Q 3513 744 3044 326 
Q 2575 -91 1722 -91 
Q 1428 -91 1123 -41 
Q 819 9 494 109 
L 494 744 
Q 775 591 1075 516 
Q 1375 441 1709 441 
Q 2250 441 2565 725 
Q 2881 1009 2881 1497 
Q 2881 1984 2565 2268 
Q 2250 2553 1709 2553 
Q 1456 2553 1204 2497 
Q 953 2441 691 2322 
L 691 4666 
z
" id="DejaVuSans-35" transform="scale(0.015625)"/>
       </defs>
       <use xlink:href="#DejaVuSans-35"/>
      </g>
     </g>
    </g>
    <g id="xtick_6">
     <g id="line2d_6">
      <g>
       <use style="stroke:#000000;stroke-width:0.8;" x="138.835625" xlink:href="#mcb9e6da29a" y="121.968"/>
      </g>
     </g>
     <g id="text_6">
      <!-- 6 -->
      <g transform="translate(135.654375 136.566438)scale(0.1 -0.1)">
       <defs>
        <path d="M 2113 2584 
Q 1688 2584 1439 2293 
Q 1191 2003 1191 1497 
Q 1191 994 1439 701 
Q 1688 409 2113 409 
Q 2538 409 2786 701 
Q 3034 994 3034 1497 
Q 3034 2003 2786 2293 
Q 2538 2584 2113 2584 
z
M 3366 4563 
L 3366 3988 
Q 3128 4100 2886 4159 
Q 2644 4219 2406 4219 
Q 1781 4219 1451 3797 
Q 1122 3375 1075 2522 
Q 1259 2794 1537 2939 
Q 1816 3084 2150 3084 
Q 2853 3084 3261 2657 
Q 3669 2231 3669 1497 
Q 3669 778 3244 343 
Q 2819 -91 2113 -91 
Q 1303 -91 875 529 
Q 447 1150 447 2328 
Q 447 3434 972 4092 
Q 1497 4750 2381 4750 
Q 2619 4750 2861 4703 
Q 3103 4656 3366 4563 
z
" id="DejaVuSans-36" transform="scale(0.015625)"/>
       </defs>
       <use xlink:href="#DejaVuSans-36"/>
      </g>
     </g>
    </g>
    <g id="xtick_7">
     <g id="line2d_7">
      <g>
       <use style="stroke:#000000;stroke-width:0.8;" x="155.575625" xlink:href="#mcb9e6da29a" y="121.968"/>
      </g>
     </g>
     <g id="text_7">
      <!-- 7 -->
      <g transform="translate(152.394375 136.566438)scale(0.1 -0.1)">
       <defs>
        <path d="M 525 4666 
L 3525 4666 
L 3525 4397 
L 1831 0 
L 1172 0 
L 2766 4134 
L 525 4134 
L 525 4666 
z
" id="DejaVuSans-37" transform="scale(0.015625)"/>
       </defs>
       <use xlink:href="#DejaVuSans-37"/>
      </g>
     </g>
    </g>
    <g id="xtick_8">
     <g id="line2d_8">
      <g>
       <use style="stroke:#000000;stroke-width:0.8;" x="172.315625" xlink:href="#mcb9e6da29a" y="121.968"/>
      </g>
     </g>
     <g id="text_8">
      <!-- 8 -->
      <g transform="translate(169.134375 136.566438)scale(0.1 -0.1)">
       <defs>
        <path d="M 2034 2216 
Q 1584 2216 1326 1975 
Q 1069 1734 1069 1313 
Q 1069 891 1326 650 
Q 1584 409 2034 409 
Q 2484 409 2743 651 
Q 3003 894 3003 1313 
Q 3003 1734 2745 1975 
Q 2488 2216 2034 2216 
z
M 1403 2484 
Q 997 2584 770 2862 
Q 544 3141 544 3541 
Q 544 4100 942 4425 
Q 1341 4750 2034 4750 
Q 2731 4750 3128 4425 
Q 3525 4100 3525 3541 
Q 3525 3141 3298 2862 
Q 3072 2584 2669 2484 
Q 3125 2378 3379 2068 
Q 3634 1759 3634 1313 
Q 3634 634 3220 271 
Q 2806 -91 2034 -91 
Q 1263 -91 848 271 
Q 434 634 434 1313 
Q 434 1759 690 2068 
Q 947 2378 1403 2484 
z
M 1172 3481 
Q 1172 3119 1398 2916 
Q 1625 2713 2034 2713 
Q 2441 2713 2670 2916 
Q 2900 3119 2900 3481 
Q 2900 3844 2670 4047 
Q 2441 4250 2034 4250 
Q 1625 4250 1398 4047 
Q 1172 3844 1172 3481 
z
" id="DejaVuSans-38" transform="scale(0.015625)"/>
       </defs>
       <use xlink:href="#DejaVuSans-38"/>
      </g>
     </g>
    </g>
    <g id="xtick_9">
     <g id="line2d_9">
      <g>
       <use style="stroke:#000000;stroke-width:0.8;" x="189.055625" xlink:href="#mcb9e6da29a" y="121.968"/>
      </g>
     </g>
     <g id="text_9">
      <!-- 9 -->
      <g transform="translate(185.874375 136.566438)scale(0.1 -0.1)">
       <defs>
        <path d="M 703 97 
L 703 672 
Q 941 559 1184 500 
Q 1428 441 1663 441 
Q 2288 441 2617 861 
Q 2947 1281 2994 2138 
Q 2813 1869 2534 1725 
Q 2256 1581 1919 1581 
Q 1219 1581 811 2004 
Q 403 2428 403 3163 
Q 403 3881 828 4315 
Q 1253 4750 1959 4750 
Q 2769 4750 3195 4129 
Q 3622 3509 3622 2328 
Q 3622 1225 3098 567 
Q 2575 -91 1691 -91 
Q 1453 -91 1209 -44 
Q 966 3 703 97 
z
M 1959 2075 
Q 2384 2075 2632 2365 
Q 2881 2656 2881 3163 
Q 2881 3666 2632 3958 
Q 2384 4250 1959 4250 
Q 1534 4250 1286 3958 
Q 1038 3666 1038 3163 
Q 1038 2656 1286 2365 
Q 1534 2075 1959 2075 
z
" id="DejaVuSans-39" transform="scale(0.015625)"/>
       </defs>
       <use xlink:href="#DejaVuSans-39"/>
      </g>
     </g>
    </g>
    <g id="xtick_10">
     <g id="line2d_10">
      <g>
       <use style="stroke:#000000;stroke-width:0.8;" x="205.795625" xlink:href="#mcb9e6da29a" y="121.968"/>
      </g>
     </g>
     <g id="text_10">
      <!-- 10 -->
      <g transform="translate(199.433125 136.566438)scale(0.1 -0.1)">
       <defs>
        <path d="M 2034 4250 
Q 1547 4250 1301 3770 
Q 1056 3291 1056 2328 
Q 1056 1369 1301 889 
Q 1547 409 2034 409 
Q 2525 409 2770 889 
Q 3016 1369 3016 2328 
Q 3016 3291 2770 3770 
Q 2525 4250 2034 4250 
z
M 2034 4750 
Q 2819 4750 3233 4129 
Q 3647 3509 3647 2328 
Q 3647 1150 3233 529 
Q 2819 -91 2034 -91 
Q 1250 -91 836 529 
Q 422 1150 422 2328 
Q 422 3509 836 4129 
Q 1250 4750 2034 4750 
z
" id="DejaVuSans-30" transform="scale(0.015625)"/>
       </defs>
       <use xlink:href="#DejaVuSans-31"/>
       <use x="63.623047" xlink:href="#DejaVuSans-30"/>
      </g>
     </g>
    </g>
    <g id="text_11">
     <!-- Sample Size ($N$) -->
     <g transform="translate(90.615625 150.246125)scale(0.1 -0.1)">
      <defs>
       <path d="M 3425 4513 
L 3425 3897 
Q 3066 4069 2747 4153 
Q 2428 4238 2131 4238 
Q 1616 4238 1336 4038 
Q 1056 3838 1056 3469 
Q 1056 3159 1242 3001 
Q 1428 2844 1947 2747 
L 2328 2669 
Q 3034 2534 3370 2195 
Q 3706 1856 3706 1288 
Q 3706 609 3251 259 
Q 2797 -91 1919 -91 
Q 1588 -91 1214 -16 
Q 841 59 441 206 
L 441 856 
Q 825 641 1194 531 
Q 1563 422 1919 422 
Q 2459 422 2753 634 
Q 3047 847 3047 1241 
Q 3047 1584 2836 1778 
Q 2625 1972 2144 2069 
L 1759 2144 
Q 1053 2284 737 2584 
Q 422 2884 422 3419 
Q 422 4038 858 4394 
Q 1294 4750 2059 4750 
Q 2388 4750 2728 4690 
Q 3069 4631 3425 4513 
z
" id="DejaVuSans-53" transform="scale(0.015625)"/>
       <path d="M 2194 1759 
Q 1497 1759 1228 1600 
Q 959 1441 959 1056 
Q 959 750 1161 570 
Q 1363 391 1709 391 
Q 2188 391 2477 730 
Q 2766 1069 2766 1631 
L 2766 1759 
L 2194 1759 
z
M 3341 1997 
L 3341 0 
L 2766 0 
L 2766 531 
Q 2569 213 2275 61 
Q 1981 -91 1556 -91 
Q 1019 -91 701 211 
Q 384 513 384 1019 
Q 384 1609 779 1909 
Q 1175 2209 1959 2209 
L 2766 2209 
L 2766 2266 
Q 2766 2663 2505 2880 
Q 2244 3097 1772 3097 
Q 1472 3097 1187 3025 
Q 903 2953 641 2809 
L 641 3341 
Q 956 3463 1253 3523 
Q 1550 3584 1831 3584 
Q 2591 3584 2966 3190 
Q 3341 2797 3341 1997 
z
" id="DejaVuSans-61" transform="scale(0.015625)"/>
       <path d="M 3328 2828 
Q 3544 3216 3844 3400 
Q 4144 3584 4550 3584 
Q 5097 3584 5394 3201 
Q 5691 2819 5691 2113 
L 5691 0 
L 5113 0 
L 5113 2094 
Q 5113 2597 4934 2840 
Q 4756 3084 4391 3084 
Q 3944 3084 3684 2787 
Q 3425 2491 3425 1978 
L 3425 0 
L 2847 0 
L 2847 2094 
Q 2847 2600 2669 2842 
Q 2491 3084 2119 3084 
Q 1678 3084 1418 2786 
Q 1159 2488 1159 1978 
L 1159 0 
L 581 0 
L 581 3500 
L 1159 3500 
L 1159 2956 
Q 1356 3278 1631 3431 
Q 1906 3584 2284 3584 
Q 2666 3584 2933 3390 
Q 3200 3197 3328 2828 
z
" id="DejaVuSans-6d" transform="scale(0.015625)"/>
       <path d="M 1159 525 
L 1159 -1331 
L 581 -1331 
L 581 3500 
L 1159 3500 
L 1159 2969 
Q 1341 3281 1617 3432 
Q 1894 3584 2278 3584 
Q 2916 3584 3314 3078 
Q 3713 2572 3713 1747 
Q 3713 922 3314 415 
Q 2916 -91 2278 -91 
Q 1894 -91 1617 61 
Q 1341 213 1159 525 
z
M 3116 1747 
Q 3116 2381 2855 2742 
Q 2594 3103 2138 3103 
Q 1681 3103 1420 2742 
Q 1159 2381 1159 1747 
Q 1159 1113 1420 752 
Q 1681 391 2138 391 
Q 2594 391 2855 752 
Q 3116 1113 3116 1747 
z
" id="DejaVuSans-70" transform="scale(0.015625)"/>
       <path d="M 603 4863 
L 1178 4863 
L 1178 0 
L 603 0 
L 603 4863 
z
" id="DejaVuSans-6c" transform="scale(0.015625)"/>
       <path d="M 3597 1894 
L 3597 1613 
L 953 1613 
Q 991 1019 1311 708 
Q 1631 397 2203 397 
Q 2534 397 2845 478 
Q 3156 559 3463 722 
L 3463 178 
Q 3153 47 2828 -22 
Q 2503 -91 2169 -91 
Q 1331 -91 842 396 
Q 353 884 353 1716 
Q 353 2575 817 3079 
Q 1281 3584 2069 3584 
Q 2775 3584 3186 3129 
Q 3597 2675 3597 1894 
z
M 3022 2063 
Q 3016 2534 2758 2815 
Q 2500 3097 2075 3097 
Q 1594 3097 1305 2825 
Q 1016 2553 972 2059 
L 3022 2063 
z
" id="DejaVuSans-65" transform="scale(0.015625)"/>
       <path id="DejaVuSans-20" transform="scale(0.015625)"/>
       <path d="M 603 3500 
L 1178 3500 
L 1178 0 
L 603 0 
L 603 3500 
z
M 603 4863 
L 1178 4863 
L 1178 4134 
L 603 4134 
L 603 4863 
z
" id="DejaVuSans-69" transform="scale(0.015625)"/>
       <path d="M 353 3500 
L 3084 3500 
L 3084 2975 
L 922 459 
L 3084 459 
L 3084 0 
L 275 0 
L 275 525 
L 2438 3041 
L 353 3041 
L 353 3500 
z
" id="DejaVuSans-7a" transform="scale(0.015625)"/>
       <path d="M 1984 4856 
Q 1566 4138 1362 3434 
Q 1159 2731 1159 2009 
Q 1159 1288 1364 580 
Q 1569 -128 1984 -844 
L 1484 -844 
Q 1016 -109 783 600 
Q 550 1309 550 2009 
Q 550 2706 781 3412 
Q 1013 4119 1484 4856 
L 1984 4856 
z
" id="DejaVuSans-28" transform="scale(0.015625)"/>
       <path d="M 1081 4666 
L 1931 4666 
L 3219 666 
L 4000 4666 
L 4616 4666 
L 3706 0 
L 2853 0 
L 1569 4025 
L 788 0 
L 172 0 
L 1081 4666 
z
" id="DejaVuSans-Oblique-4e" transform="scale(0.015625)"/>
       <path d="M 513 4856 
L 1013 4856 
Q 1481 4119 1714 3412 
Q 1947 2706 1947 2009 
Q 1947 1309 1714 600 
Q 1481 -109 1013 -844 
L 513 -844 
Q 928 -128 1133 580 
Q 1338 1288 1338 2009 
Q 1338 2731 1133 3434 
Q 928 4138 513 4856 
z
" id="DejaVuSans-29" transform="scale(0.015625)"/>
      </defs>
      <use transform="translate(0 0.015625)" xlink:href="#DejaVuSans-53"/>
      <use transform="translate(63.476562 0.015625)" xlink:href="#DejaVuSans-61"/>
      <use transform="translate(124.755859 0.015625)" xlink:href="#DejaVuSans-6d"/>
      <use transform="translate(222.167969 0.015625)" xlink:href="#DejaVuSans-70"/>
      <use transform="translate(285.644531 0.015625)" xlink:href="#DejaVuSans-6c"/>
      <use transform="translate(313.427734 0.015625)" xlink:href="#DejaVuSans-65"/>
      <use transform="translate(374.951172 0.015625)" xlink:href="#DejaVuSans-20"/>
      <use transform="translate(406.738281 0.015625)" xlink:href="#DejaVuSans-53"/>
      <use transform="translate(470.214844 0.015625)" xlink:href="#DejaVuSans-69"/>
      <use transform="translate(497.998047 0.015625)" xlink:href="#DejaVuSans-7a"/>
      <use transform="translate(550.488281 0.015625)" xlink:href="#DejaVuSans-65"/>
      <use transform="translate(612.011719 0.015625)" xlink:href="#DejaVuSans-20"/>
      <use transform="translate(643.798828 0.015625)" xlink:href="#DejaVuSans-28"/>
      <use transform="translate(682.8125 0.015625)" xlink:href="#DejaVuSans-Oblique-4e"/>
      <use transform="translate(757.617188 0.015625)" xlink:href="#DejaVuSans-29"/>
     </g>
    </g>
   </g>
   <g id="matplotlib.axis_2">
    <g id="ytick_1">
     <g id="line2d_11">
      <defs>
       <path d="M 0 0 
L -3.5 0 
" id="m1c3af4ec3c" style="stroke:#000000;stroke-width:0.8;"/>
      </defs>
      <g>
       <use style="stroke:#000000;stroke-width:0.8;" x="46.765625" xlink:href="#m1c3af4ec3c" y="111.362087"/>
      </g>
     </g>
     <g id="text_12">
      <!-- 0.50 -->
      <g transform="translate(17.5 115.161306)scale(0.1 -0.1)">
       <defs>
        <path d="M 684 794 
L 1344 794 
L 1344 0 
L 684 0 
L 684 794 
z
" id="DejaVuSans-2e" transform="scale(0.015625)"/>
       </defs>
       <use xlink:href="#DejaVuSans-30"/>
       <use x="63.623047" xlink:href="#DejaVuSans-2e"/>
       <use x="95.410156" xlink:href="#DejaVuSans-35"/>
       <use x="159.033203" xlink:href="#DejaVuSans-30"/>
      </g>
     </g>
    </g>
    <g id="ytick_2">
     <g id="line2d_12">
      <g>
       <use style="stroke:#000000;stroke-width:0.8;" x="46.765625" xlink:href="#m1c3af4ec3c" y="84.847304"/>
      </g>
     </g>
     <g id="text_13">
      <!-- 0.55 -->
      <g transform="translate(17.5 88.646523)scale(0.1 -0.1)">
       <use xlink:href="#DejaVuSans-30"/>
       <use x="63.623047" xlink:href="#DejaVuSans-2e"/>
       <use x="95.410156" xlink:href="#DejaVuSans-35"/>
       <use x="159.033203" xlink:href="#DejaVuSans-35"/>
      </g>
     </g>
    </g>
    <g id="ytick_3">
     <g id="line2d_13">
      <g>
       <use style="stroke:#000000;stroke-width:0.8;" x="46.765625" xlink:href="#m1c3af4ec3c" y="58.332522"/>
      </g>
     </g>
     <g id="text_14">
      <!-- 0.60 -->
      <g transform="translate(17.5 62.13174)scale(0.1 -0.1)">
       <use xlink:href="#DejaVuSans-30"/>
       <use x="63.623047" xlink:href="#DejaVuSans-2e"/>
       <use x="95.410156" xlink:href="#DejaVuSans-36"/>
       <use x="159.033203" xlink:href="#DejaVuSans-30"/>
      </g>
     </g>
    </g>
    <g id="ytick_4">
     <g id="line2d_14">
      <g>
       <use style="stroke:#000000;stroke-width:0.8;" x="46.765625" xlink:href="#m1c3af4ec3c" y="31.817739"/>
      </g>
     </g>
     <g id="text_15">
      <!-- 0.65 -->
      <g transform="translate(17.5 35.616958)scale(0.1 -0.1)">
       <use xlink:href="#DejaVuSans-30"/>
       <use x="63.623047" xlink:href="#DejaVuSans-2e"/>
       <use x="95.410156" xlink:href="#DejaVuSans-36"/>
       <use x="159.033203" xlink:href="#DejaVuSans-35"/>
      </g>
     </g>
    </g>
    <g id="ytick_5">
     <g id="line2d_15">
      <g>
       <use style="stroke:#000000;stroke-width:0.8;" x="46.765625" xlink:href="#m1c3af4ec3c" y="5.302957"/>
      </g>
     </g>
     <g id="text_16">
      <!-- 0.70 -->
      <g transform="translate(17.5 9.102175)scale(0.1 -0.1)">
       <use xlink:href="#DejaVuSans-30"/>
       <use x="63.623047" xlink:href="#DejaVuSans-2e"/>
       <use x="95.410156" xlink:href="#DejaVuSans-37"/>
       <use x="159.033203" xlink:href="#DejaVuSans-30"/>
      </g>
     </g>
    </g>
    <g id="text_17">
     <!-- Mean $\hat{\beta}$ Estimate -->
     <g transform="translate(11.4 103.084)rotate(-90)scale(0.1 -0.1)">
      <defs>
       <path d="M 628 4666 
L 1569 4666 
L 2759 1491 
L 3956 4666 
L 4897 4666 
L 4897 0 
L 4281 0 
L 4281 4097 
L 3078 897 
L 2444 897 
L 1241 4097 
L 1241 0 
L 628 0 
L 628 4666 
z
" id="DejaVuSans-4d" transform="scale(0.015625)"/>
       <path d="M 3513 2113 
L 3513 0 
L 2938 0 
L 2938 2094 
Q 2938 2591 2744 2837 
Q 2550 3084 2163 3084 
Q 1697 3084 1428 2787 
Q 1159 2491 1159 1978 
L 1159 0 
L 581 0 
L 581 3500 
L 1159 3500 
L 1159 2956 
Q 1366 3272 1645 3428 
Q 1925 3584 2291 3584 
Q 2894 3584 3203 3211 
Q 3513 2838 3513 2113 
z
" id="DejaVuSans-6e" transform="scale(0.015625)"/>
       <path d="M -1831 5119 
L -1369 5119 
L -603 3944 
L -1038 3944 
L -1600 4709 
L -2163 3944 
L -2597 3944 
L -1831 5119 
z
M -1600 3584 
L -1600 3584 
z
" id="DejaVuSans-302" transform="scale(0.015625)"/>
       <path d="M 872 216 
L 572 -1331 
L -6 -1331 
L 928 3478 
Q 1206 4903 2538 4903 
Q 3888 4903 3659 3700 
Q 3503 2844 2894 2531 
Q 3713 2250 3553 1416 
Q 3272 -69 1759 -66 
Q 1097 -63 872 216 
z
M 1019 966 
Q 1259 422 1875 425 
Q 2775 425 2966 1406 
Q 3138 2288 1675 2219 
L 1778 2750 
Q 2909 2731 3106 3750 
Q 3241 4438 2509 4434 
Q 1691 4434 1503 3459 
L 1019 966 
z
" id="DejaVuSans-Oblique-3b2" transform="scale(0.015625)"/>
       <path d="M 628 4666 
L 3578 4666 
L 3578 4134 
L 1259 4134 
L 1259 2753 
L 3481 2753 
L 3481 2222 
L 1259 2222 
L 1259 531 
L 3634 531 
L 3634 0 
L 628 0 
L 628 4666 
z
" id="DejaVuSans-45" transform="scale(0.015625)"/>
       <path d="M 2834 3397 
L 2834 2853 
Q 2591 2978 2328 3040 
Q 2066 3103 1784 3103 
Q 1356 3103 1142 2972 
Q 928 2841 928 2578 
Q 928 2378 1081 2264 
Q 1234 2150 1697 2047 
L 1894 2003 
Q 2506 1872 2764 1633 
Q 3022 1394 3022 966 
Q 3022 478 2636 193 
Q 2250 -91 1575 -91 
Q 1294 -91 989 -36 
Q 684 19 347 128 
L 347 722 
Q 666 556 975 473 
Q 1284 391 1588 391 
Q 1994 391 2212 530 
Q 2431 669 2431 922 
Q 2431 1156 2273 1281 
Q 2116 1406 1581 1522 
L 1381 1569 
Q 847 1681 609 1914 
Q 372 2147 372 2553 
Q 372 3047 722 3315 
Q 1072 3584 1716 3584 
Q 2034 3584 2315 3537 
Q 2597 3491 2834 3397 
z
" id="DejaVuSans-73" transform="scale(0.015625)"/>
       <path d="M 1172 4494 
L 1172 3500 
L 2356 3500 
L 2356 3053 
L 1172 3053 
L 1172 1153 
Q 1172 725 1289 603 
Q 1406 481 1766 481 
L 2356 481 
L 2356 0 
L 1766 0 
Q 1100 0 847 248 
Q 594 497 594 1153 
L 594 3053 
L 172 3053 
L 172 3500 
L 594 3500 
L 594 4494 
L 1172 4494 
z
" id="DejaVuSans-74" transform="scale(0.015625)"/>
      </defs>
      <use transform="translate(0 0.90625)" xlink:href="#DejaVuSans-4d"/>
      <use transform="translate(86.279297 0.90625)" xlink:href="#DejaVuSans-65"/>
      <use transform="translate(147.802734 0.90625)" xlink:href="#DejaVuSans-61"/>
      <use transform="translate(209.082031 0.90625)" xlink:href="#DejaVuSans-6e"/>
      <use transform="translate(272.460938 0.90625)" xlink:href="#DejaVuSans-20"/>
      <use transform="translate(368.780762 34.015625)" xlink:href="#DejaVuSans-302"/>
      <use transform="translate(304.248047 0.90625)" xlink:href="#DejaVuSans-Oblique-3b2"/>
      <use transform="translate(368.066406 0.90625)" xlink:href="#DejaVuSans-20"/>
      <use transform="translate(399.853516 0.90625)" xlink:href="#DejaVuSans-45"/>
      <use transform="translate(463.037109 0.90625)" xlink:href="#DejaVuSans-73"/>
      <use transform="translate(515.136719 0.90625)" xlink:href="#DejaVuSans-74"/>
      <use transform="translate(554.345703 0.90625)" xlink:href="#DejaVuSans-69"/>
      <use transform="translate(582.128906 0.90625)" xlink:href="#DejaVuSans-6d"/>
      <use transform="translate(679.541016 0.90625)" xlink:href="#DejaVuSans-61"/>
      <use transform="translate(740.820312 0.90625)" xlink:href="#DejaVuSans-74"/>
      <use transform="translate(780.029297 0.90625)" xlink:href="#DejaVuSans-65"/>
     </g>
    </g>
   </g>
   <g id="line2d_16">
    <path clip-path="url(#pc4befc724e)" d="M 55.135625 111.362087 
L 205.795625 111.362087 
" style="fill:none;stroke:#000000;stroke-dasharray:3.33,1.44;stroke-dashoffset:0;stroke-width:0.9;"/>
   </g>
   <g id="line2d_17">
    <path clip-path="url(#pc4befc724e)" d="M 55.135625 6.034816 
L 71.875625 50.302316 
L 88.615625 72.009095 
L 105.355625 80.736661 
L 122.095625 83.924953 
L 138.835625 90.283664 
L 155.575625 93.206101 
L 172.315625 94.503573 
L 189.055625 95.532144 
L 205.795625 98.347221 
" style="fill:none;stroke:#0000ff;stroke-dasharray:1.85,0.8;stroke-dashoffset:0;stroke-width:0.5;"/>
   </g>
   <g id="patch_3">
    <path d="M 46.765625 121.968 
L 46.765625 0 
" style="fill:none;stroke:#000000;stroke-linecap:square;stroke-linejoin:miter;stroke-width:0.8;"/>
   </g>
   <g id="patch_4">
    <path d="M 214.165625 121.968 
L 214.165625 0 
" style="fill:none;stroke:#000000;stroke-linecap:square;stroke-linejoin:miter;stroke-width:0.8;"/>
   </g>
   <g id="patch_5">
    <path d="M 46.765625 121.968 
L 214.165625 121.968 
" style="fill:none;stroke:#000000;stroke-linecap:square;stroke-linejoin:miter;stroke-width:0.8;"/>
   </g>
   <g id="patch_6">
    <path d="M 46.765625 0 
L 214.165625 0 
" style="fill:none;stroke:#000000;stroke-linecap:square;stroke-linejoin:miter;stroke-width:0.8;"/>
   </g>
   <g id="patch_7">
    <path d="M 160.661629 68.932058 
Q 140.848874 83.563127 129.949453 84.659744 
" style="fill:none;stroke:#000000;stroke-linecap:round;stroke-width:0.75;"/>
    <path d="M 134.129574 86.249269 
L 129.949453 84.659744 
L 133.729146 82.269363 
" style="fill:none;stroke:#000000;stroke-linecap:round;stroke-width:0.75;"/>
   </g>
   <g id="text_18">
    <!-- $E[\hat{\beta}_{MLE}]$ -->
    <g transform="translate(155.575625 63.635478)scale(0.1 -0.1)">
     <defs>
      <path d="M 1081 4666 
L 4031 4666 
L 3928 4134 
L 1606 4134 
L 1338 2753 
L 3566 2753 
L 3463 2222 
L 1234 2222 
L 909 531 
L 3284 531 
L 3181 0 
L 172 0 
L 1081 4666 
z
" id="DejaVuSans-Oblique-45" transform="scale(0.015625)"/>
      <path d="M 550 4863 
L 1875 4863 
L 1875 4416 
L 1125 4416 
L 1125 -397 
L 1875 -397 
L 1875 -844 
L 550 -844 
L 550 4863 
z
" id="DejaVuSans-5b" transform="scale(0.015625)"/>
      <path d="M 1081 4666 
L 2028 4666 
L 2572 1522 
L 4378 4666 
L 5350 4666 
L 4441 0 
L 3828 0 
L 4622 4091 
L 2791 897 
L 2175 897 
L 1581 4103 
L 788 0 
L 172 0 
L 1081 4666 
z
" id="DejaVuSans-Oblique-4d" transform="scale(0.015625)"/>
      <path d="M 1075 4666 
L 1709 4666 
L 909 525 
L 3181 525 
L 3078 0 
L 172 0 
L 1075 4666 
z
" id="DejaVuSans-Oblique-4c" transform="scale(0.015625)"/>
      <path d="M 1947 4863 
L 1947 -844 
L 622 -844 
L 622 -397 
L 1369 -397 
L 1369 4416 
L 622 4416 
L 622 4863 
L 1947 4863 
z
" id="DejaVuSans-5d" transform="scale(0.015625)"/>
     </defs>
     <use transform="translate(0 0.90625)" xlink:href="#DejaVuSans-Oblique-45"/>
     <use transform="translate(63.183594 0.90625)" xlink:href="#DejaVuSans-5b"/>
     <use transform="translate(166.72998 34.015625)" xlink:href="#DejaVuSans-302"/>
     <use transform="translate(102.197266 0.90625)" xlink:href="#DejaVuSans-Oblique-3b2"/>
     <use transform="translate(166.972656 -15.5)scale(0.7)" xlink:href="#DejaVuSans-Oblique-4d"/>
     <use transform="translate(227.368164 -15.5)scale(0.7)" xlink:href="#DejaVuSans-Oblique-4c"/>
     <use transform="translate(266.367188 -15.5)scale(0.7)" xlink:href="#DejaVuSans-Oblique-45"/>
     <use transform="translate(313.330078 0.90625)" xlink:href="#DejaVuSans-5d"/>
    </g>
   </g>
   <g id="patch_8">
    <path d="M 72.056857 21.108787 
Q 59.773612 38.069552 54.346379 41.204499 
" style="fill:none;stroke:#000000;stroke-linecap:round;stroke-width:0.75;"/>
    <path d="M 58.810424 40.935604 
L 54.346379 41.204499 
L 56.80969 37.471926 
" style="fill:none;stroke:#000000;stroke-linecap:round;stroke-width:0.75;"/>
   </g>
   <g id="text_19">
    <!-- $bias(\hat{\beta}_{MLE}) = E[\hat{\beta}_{MLE}]-\beta^{*}$ -->
    <g transform="translate(75.223625 15.90887)scale(0.1 -0.1)">
     <defs>
      <path d="M 3169 2138 
Q 3169 2591 2961 2847 
Q 2753 3103 2388 3103 
Q 2122 3103 1889 2973 
Q 1656 2844 1484 2597 
Q 1303 2338 1198 1995 
Q 1094 1653 1094 1313 
Q 1094 881 1298 636 
Q 1503 391 1863 391 
Q 2134 391 2365 517 
Q 2597 644 2772 891 
Q 2950 1147 3059 1487 
Q 3169 1828 3169 2138 
z
M 1381 2969 
Q 1594 3256 1914 3420 
Q 2234 3584 2584 3584 
Q 3122 3584 3439 3221 
Q 3756 2859 3756 2241 
Q 3756 1734 3570 1259 
Q 3384 784 3041 416 
Q 2816 172 2522 40 
Q 2228 -91 1906 -91 
Q 1566 -91 1316 65 
Q 1066 222 909 531 
L 806 0 
L 231 0 
L 1178 4863 
L 1753 4863 
L 1381 2969 
z
" id="DejaVuSans-Oblique-62" transform="scale(0.015625)"/>
      <path d="M 1172 4863 
L 1747 4863 
L 1606 4134 
L 1031 4134 
L 1172 4863 
z
M 909 3500 
L 1484 3500 
L 800 0 
L 225 0 
L 909 3500 
z
" id="DejaVuSans-Oblique-69" transform="scale(0.015625)"/>
      <path d="M 3438 1997 
L 3047 0 
L 2472 0 
L 2578 531 
Q 2325 219 2001 64 
Q 1678 -91 1281 -91 
Q 834 -91 548 182 
Q 263 456 263 884 
Q 263 1497 752 1853 
Q 1241 2209 2100 2209 
L 2900 2209 
L 2931 2363 
Q 2938 2388 2941 2417 
Q 2944 2447 2944 2509 
Q 2944 2788 2717 2942 
Q 2491 3097 2081 3097 
Q 1800 3097 1504 3025 
Q 1209 2953 897 2809 
L 997 3341 
Q 1322 3463 1633 3523 
Q 1944 3584 2234 3584 
Q 2853 3584 3176 3315 
Q 3500 3047 3500 2534 
Q 3500 2431 3484 2292 
Q 3469 2153 3438 1997 
z
M 2816 1759 
L 2241 1759 
Q 1534 1759 1195 1570 
Q 856 1381 856 984 
Q 856 709 1029 553 
Q 1203 397 1509 397 
Q 1978 397 2328 733 
Q 2678 1069 2791 1631 
L 2816 1759 
z
" id="DejaVuSans-Oblique-61" transform="scale(0.015625)"/>
      <path d="M 3200 3397 
L 3091 2853 
Q 2863 2978 2609 3040 
Q 2356 3103 2088 3103 
Q 1634 3103 1373 2948 
Q 1113 2794 1113 2528 
Q 1113 2219 1719 2053 
Q 1766 2041 1788 2034 
L 1972 1978 
Q 2547 1819 2739 1644 
Q 2931 1469 2931 1166 
Q 2931 609 2489 259 
Q 2047 -91 1331 -91 
Q 1053 -91 747 -37 
Q 441 16 72 128 
L 184 722 
Q 500 559 806 475 
Q 1113 391 1394 391 
Q 1816 391 2080 572 
Q 2344 753 2344 1031 
Q 2344 1331 1650 1516 
L 1591 1531 
L 1394 1581 
Q 956 1697 753 1886 
Q 550 2075 550 2369 
Q 550 2928 970 3256 
Q 1391 3584 2113 3584 
Q 2397 3584 2667 3537 
Q 2938 3491 3200 3397 
z
" id="DejaVuSans-Oblique-73" transform="scale(0.015625)"/>
      <path d="M 678 2906 
L 4684 2906 
L 4684 2381 
L 678 2381 
L 678 2906 
z
M 678 1631 
L 4684 1631 
L 4684 1100 
L 678 1100 
L 678 1631 
z
" id="DejaVuSans-3d" transform="scale(0.015625)"/>
      <path d="M 678 2272 
L 4684 2272 
L 4684 1741 
L 678 1741 
L 678 2272 
z
" id="DejaVuSans-2212" transform="scale(0.015625)"/>
      <path d="M 3009 3897 
L 1888 3291 
L 3009 2681 
L 2828 2375 
L 1778 3009 
L 1778 1831 
L 1422 1831 
L 1422 3009 
L 372 2375 
L 191 2681 
L 1313 3291 
L 191 3897 
L 372 4206 
L 1422 3572 
L 1422 4750 
L 1778 4750 
L 1778 3572 
L 2828 4206 
L 3009 3897 
z
" id="DejaVuSans-2a" transform="scale(0.015625)"/>
     </defs>
     <use transform="translate(0 0.90625)" xlink:href="#DejaVuSans-Oblique-62"/>
     <use transform="translate(63.476562 0.90625)" xlink:href="#DejaVuSans-Oblique-69"/>
     <use transform="translate(91.259766 0.90625)" xlink:href="#DejaVuSans-Oblique-61"/>
     <use transform="translate(152.539062 0.90625)" xlink:href="#DejaVuSans-Oblique-73"/>
     <use transform="translate(204.638672 0.90625)" xlink:href="#DejaVuSans-28"/>
     <use transform="translate(308.185059 34.015625)" xlink:href="#DejaVuSans-302"/>
     <use transform="translate(243.652344 0.90625)" xlink:href="#DejaVuSans-Oblique-3b2"/>
     <use transform="translate(308.427734 -15.5)scale(0.7)" xlink:href="#DejaVuSans-Oblique-4d"/>
     <use transform="translate(368.823242 -15.5)scale(0.7)" xlink:href="#DejaVuSans-Oblique-4c"/>
     <use transform="translate(407.822266 -15.5)scale(0.7)" xlink:href="#DejaVuSans-Oblique-45"/>
     <use transform="translate(454.785156 0.90625)" xlink:href="#DejaVuSans-29"/>
     <use transform="translate(513.28125 0.90625)" xlink:href="#DejaVuSans-3d"/>
     <use transform="translate(616.552734 0.90625)" xlink:href="#DejaVuSans-Oblique-45"/>
     <use transform="translate(679.736328 0.90625)" xlink:href="#DejaVuSans-5b"/>
     <use transform="translate(783.282715 34.015625)" xlink:href="#DejaVuSans-302"/>
     <use transform="translate(718.75 0.90625)" xlink:href="#DejaVuSans-Oblique-3b2"/>
     <use transform="translate(783.525391 -15.5)scale(0.7)" xlink:href="#DejaVuSans-Oblique-4d"/>
     <use transform="translate(843.920898 -15.5)scale(0.7)" xlink:href="#DejaVuSans-Oblique-4c"/>
     <use transform="translate(882.919922 -15.5)scale(0.7)" xlink:href="#DejaVuSans-Oblique-45"/>
     <use transform="translate(929.882812 0.90625)" xlink:href="#DejaVuSans-5d"/>
     <use transform="translate(988.378906 0.90625)" xlink:href="#DejaVuSans-2212"/>
     <use transform="translate(1091.650391 0.90625)" xlink:href="#DejaVuSans-Oblique-3b2"/>
     <use transform="translate(1163.003958 39.1875)scale(0.7)" xlink:href="#DejaVuSans-2a"/>
    </g>
   </g>
   <g id="patch_9">
    <path d="M 81.722347 101.750923 
Q 75.071561 107.239329 73.387113 108.989454 
" style="fill:none;stroke:#000000;stroke-linecap:round;stroke-width:0.75;"/>
    <path d="M 77.60194 107.494385 
L 73.387113 108.989454 
L 74.719954 104.720551 
" style="fill:none;stroke:#000000;stroke-linecap:round;stroke-width:0.75;"/>
   </g>
   <g id="text_20">
    <!-- $E[\hat{\beta}_{Firth}]$ -->
    <g transform="translate(85.267625 98.104696)scale(0.1 -0.1)">
     <defs>
      <path d="M 1081 4666 
L 3756 4666 
L 3653 4134 
L 1606 4134 
L 1338 2759 
L 3188 2759 
L 3084 2228 
L 1234 2228 
L 800 0 
L 172 0 
L 1081 4666 
z
" id="DejaVuSans-Oblique-46" transform="scale(0.015625)"/>
      <path d="M 2853 2969 
Q 2766 3016 2653 3041 
Q 2541 3066 2413 3066 
Q 1953 3066 1609 2717 
Q 1266 2369 1153 1784 
L 800 0 
L 225 0 
L 909 3500 
L 1484 3500 
L 1375 2956 
Q 1603 3259 1920 3421 
Q 2238 3584 2597 3584 
Q 2691 3584 2781 3573 
Q 2872 3563 2963 3538 
L 2853 2969 
z
" id="DejaVuSans-Oblique-72" transform="scale(0.015625)"/>
      <path d="M 2706 3500 
L 2619 3053 
L 1472 3053 
L 1100 1153 
Q 1081 1047 1072 975 
Q 1063 903 1063 863 
Q 1063 663 1183 572 
Q 1303 481 1569 481 
L 2150 481 
L 2053 0 
L 1503 0 
Q 991 0 739 200 
Q 488 400 488 806 
Q 488 878 497 964 
Q 506 1050 525 1153 
L 897 3053 
L 409 3053 
L 500 3500 
L 978 3500 
L 1172 4494 
L 1747 4494 
L 1556 3500 
L 2706 3500 
z
" id="DejaVuSans-Oblique-74" transform="scale(0.015625)"/>
      <path d="M 3566 2113 
L 3156 0 
L 2578 0 
L 2988 2091 
Q 3016 2238 3031 2350 
Q 3047 2463 3047 2528 
Q 3047 2791 2881 2937 
Q 2716 3084 2419 3084 
Q 1956 3084 1617 2771 
Q 1278 2459 1178 1941 
L 800 0 
L 225 0 
L 1172 4863 
L 1747 4863 
L 1375 2950 
Q 1594 3244 1934 3414 
Q 2275 3584 2650 3584 
Q 3113 3584 3367 3334 
Q 3622 3084 3622 2631 
Q 3622 2519 3608 2391 
Q 3594 2263 3566 2113 
z
" id="DejaVuSans-Oblique-68" transform="scale(0.015625)"/>
     </defs>
     <use transform="translate(0 0.90625)" xlink:href="#DejaVuSans-Oblique-45"/>
     <use transform="translate(63.183594 0.90625)" xlink:href="#DejaVuSans-5b"/>
     <use transform="translate(166.72998 34.015625)" xlink:href="#DejaVuSans-302"/>
     <use transform="translate(102.197266 0.90625)" xlink:href="#DejaVuSans-Oblique-3b2"/>
     <use transform="translate(166.972656 -15.5)scale(0.7)" xlink:href="#DejaVuSans-Oblique-46"/>
     <use transform="translate(207.236328 -15.5)scale(0.7)" xlink:href="#DejaVuSans-Oblique-69"/>
     <use transform="translate(226.68457 -15.5)scale(0.7)" xlink:href="#DejaVuSans-Oblique-72"/>
     <use transform="translate(255.463867 -15.5)scale(0.7)" xlink:href="#DejaVuSans-Oblique-74"/>
     <use transform="translate(282.910156 -15.5)scale(0.7)" xlink:href="#DejaVuSans-Oblique-68"/>
     <use transform="translate(330.009766 0.90625)" xlink:href="#DejaVuSans-5d"/>
    </g>
   </g>
   <g id="PathCollection_2">
    <defs>
     <path d="M 0 1.936492 
C 0.513564 1.936492 1.006162 1.732451 1.369306 1.369306 
C 1.732451 1.006162 1.936492 0.513564 1.936492 0 
C 1.936492 -0.513564 1.732451 -1.006162 1.369306 -1.369306 
C 1.006162 -1.732451 0.513564 -1.936492 0 -1.936492 
C -0.513564 -1.936492 -1.006162 -1.732451 -1.369306 -1.369306 
C -1.732451 -1.006162 -1.936492 -0.513564 -1.936492 0 
C -1.936492 0.513564 -1.732451 1.006162 -1.369306 1.369306 
C -1.006162 1.732451 -0.513564 1.936492 0 1.936492 
z
" id="mfb2a11261b" style="stroke:#ff0000;"/>
    </defs>
    <g clip-path="url(#pc4befc724e)">
     <use style="fill:#ff0000;stroke:#ff0000;" x="55.135625" xlink:href="#mfb2a11261b" y="105.648824"/>
     <use style="fill:#ff0000;stroke:#ff0000;" x="71.875625" xlink:href="#mfb2a11261b" y="110.282367"/>
     <use style="fill:#ff0000;stroke:#ff0000;" x="88.615625" xlink:href="#mfb2a11261b" y="114.316275"/>
     <use style="fill:#ff0000;stroke:#ff0000;" x="105.355625" xlink:href="#mfb2a11261b" y="112.995099"/>
     <use style="fill:#ff0000;stroke:#ff0000;" x="122.095625" xlink:href="#mfb2a11261b" y="109.954804"/>
     <use style="fill:#ff0000;stroke:#ff0000;" x="138.835625" xlink:href="#mfb2a11261b" y="112.134891"/>
     <use style="fill:#ff0000;stroke:#ff0000;" x="155.575625" xlink:href="#mfb2a11261b" y="111.952648"/>
     <use style="fill:#ff0000;stroke:#ff0000;" x="172.315625" xlink:href="#mfb2a11261b" y="110.937092"/>
     <use style="fill:#ff0000;stroke:#ff0000;" x="189.055625" xlink:href="#mfb2a11261b" y="110.178684"/>
     <use style="fill:#ff0000;stroke:#ff0000;" x="205.795625" xlink:href="#mfb2a11261b" y="111.528837"/>
    </g>
   </g>
   <g id="line2d_18">
    <path clip-path="url(#pc4befc724e)" d="M 55.135625 105.648824 
L 71.875625 110.282367 
L 88.615625 114.316275 
L 105.355625 112.995099 
L 122.095625 109.954804 
L 138.835625 112.134891 
L 155.575625 111.952648 
L 172.315625 110.937092 
L 189.055625 110.178684 
L 205.795625 111.528837 
" style="fill:none;stroke:#ff0000;stroke-dasharray:1.85,0.8;stroke-dashoffset:0;stroke-width:0.5;"/>
   </g>
   <g id="PathCollection_3">
    <defs>
     <path d="M 0 -3.708099 
L -0.83252 -1.145866 
L -3.526612 -1.145866 
L -1.347046 0.437682 
L -2.179566 2.999915 
L -0 1.416368 
L 2.179566 2.999915 
L 1.347046 0.437682 
L 3.526612 -1.145866 
L 0.83252 -1.145866 
z
" id="me1b7d647d1" style="stroke:#000000;"/>
    </defs>
    <g clip-path="url(#pc4befc724e)">
     <use style="stroke:#000000;" x="55.135625" xlink:href="#me1b7d647d1" y="111.362087"/>
    </g>
   </g>
   <g id="patch_10">
    <path d="M 51.787625 4.801382 
Q 51.787625 57.537078 51.787625 110.272774 
" style="fill:none;stroke:#000000;stroke-dasharray:1.85,0.8;stroke-dashoffset:0;stroke-linecap:round;stroke-width:0.5;"/>
    <path d="M 49.387625 9.601382 
L 51.787625 4.801382 
L 54.187625 9.601382 
L 49.387625 9.601382 
z
" style="stroke:#000000;stroke-dasharray:1.85,0.8;stroke-dashoffset:0;stroke-linecap:round;stroke-width:0.5;"/>
    <path d="M 54.187625 105.472774 
L 51.787625 110.272774 
L 49.387625 105.472774 
L 54.187625 105.472774 
z
" style="stroke:#000000;stroke-dasharray:1.85,0.8;stroke-dashoffset:0;stroke-linecap:round;stroke-width:0.5;"/>
   </g>
  </g>
 </g>
 <defs>
  <clipPath id="pc4befc724e">
   <rect height="121.968" width="167.4" x="46.765625" y="0"/>
  </clipPath>
 </defs>
</svg>
