<?xml version="1.0" encoding="utf-8" standalone="no"?>
<!DOCTYPE svg PUBLIC "-//W3C//DTD SVG 1.1//EN"
  "http://www.w3.org/Graphics/SVG/1.1/DTD/svg11.dtd">
<svg height="194.374375pt" version="1.1" viewBox="0 0 252.788437 194.374375" width="252.788437pt" xmlns="http://www.w3.org/2000/svg" xmlns:xlink="http://www.w3.org/1999/xlink">
 <metadata>
  <rdf:RDF xmlns:cc="http://creativecommons.org/ns#" xmlns:dc="http://purl.org/dc/elements/1.1/" xmlns:rdf="http://www.w3.org/1999/02/22-rdf-syntax-ns#">
   <cc:Work>
    <dc:type rdf:resource="http://purl.org/dc/dcmitype/StillImage"/>
    <dc:date>2022-03-30T22:58:11.126704</dc:date>
    <dc:format>image/svg+xml</dc:format>
    <dc:creator>
     <cc:Agent>
      <dc:title>Matplotlib v3.4.1, https://matplotlib.org/</dc:title>
     </cc:Agent>
    </dc:creator>
   </cc:Work>
  </rdf:RDF>
 </metadata>
 <defs>
  <style type="text/css">*{stroke-linecap:butt;stroke-linejoin:round;}</style>
 </defs>
 <g id="figure_1">
  <g id="patch_1">
   <path d="M 0 194.374375 
L 252.788437 194.374375 
L 252.788437 0 
L 0 0 
z
" style="fill:#ffffff;"/>
  </g>
  <g id="axes_1">
   <g id="patch_2">
    <path d="M 36.58125 164.018125 
L 247.48125 164.018125 
L 247.48125 15.118125 
L 36.58125 15.118125 
z
" style="fill:#ffffff;"/>
   </g>
   <g id="matplotlib.axis_1">
    <g id="xtick_1">
     <g id="line2d_1">
      <defs>
       <path d="M 0 0 
L 0 3.5 
" id="m91c78fda46" style="stroke:#000000;stroke-width:0.8;"/>
      </defs>
      <g>
       <use style="stroke:#000000;stroke-width:0.8;" x="46.167614" xlink:href="#m91c78fda46" y="164.018125"/>
      </g>
     </g>
     <g id="text_1">
      <!-- 1 -->
      <g transform="translate(42.986364 178.616562)scale(0.1 -0.1)">
       <defs>
        <path d="M 794 531 
L 1825 531 
L 1825 4091 
L 703 3866 
L 703 4441 
L 1819 4666 
L 2450 4666 
L 2450 531 
L 3481 531 
L 3481 0 
L 794 0 
L 794 531 
z
" id="DejaVuSans-31" transform="scale(0.015625)"/>
       </defs>
       <use xlink:href="#DejaVuSans-31"/>
      </g>
     </g>
    </g>
    <g id="xtick_2">
     <g id="line2d_2">
      <g>
       <use style="stroke:#000000;stroke-width:0.8;" x="78.122159" xlink:href="#m91c78fda46" y="164.018125"/>
      </g>
     </g>
     <g id="text_2">
      <!-- 5 -->
      <g transform="translate(74.940909 178.616562)scale(0.1 -0.1)">
       <defs>
        <path d="M 691 4666 
L 3169 4666 
L 3169 4134 
L 1269 4134 
L 1269 2991 
Q 1406 3038 1543 3061 
Q 1681 3084 1819 3084 
Q 2600 3084 3056 2656 
Q 3513 2228 3513 1497 
Q 3513 744 3044 326 
Q 2575 -91 1722 -91 
Q 1428 -91 1123 -41 
Q 819 9 494 109 
L 494 744 
Q 775 591 1075 516 
Q 1375 441 1709 441 
Q 2250 441 2565 725 
Q 2881 1009 2881 1497 
Q 2881 1984 2565 2268 
Q 2250 2553 1709 2553 
Q 1456 2553 1204 2497 
Q 953 2441 691 2322 
L 691 4666 
z
" id="DejaVuSans-35" transform="scale(0.015625)"/>
       </defs>
       <use xlink:href="#DejaVuSans-35"/>
      </g>
     </g>
    </g>
    <g id="xtick_3">
     <g id="line2d_3">
      <g>
       <use style="stroke:#000000;stroke-width:0.8;" x="118.065341" xlink:href="#m91c78fda46" y="164.018125"/>
      </g>
     </g>
     <g id="text_3">
      <!-- 10 -->
      <g transform="translate(111.702841 178.616562)scale(0.1 -0.1)">
       <defs>
        <path d="M 2034 4250 
Q 1547 4250 1301 3770 
Q 1056 3291 1056 2328 
Q 1056 1369 1301 889 
Q 1547 409 2034 409 
Q 2525 409 2770 889 
Q 3016 1369 3016 2328 
Q 3016 3291 2770 3770 
Q 2525 4250 2034 4250 
z
M 2034 4750 
Q 2819 4750 3233 4129 
Q 3647 3509 3647 2328 
Q 3647 1150 3233 529 
Q 2819 -91 2034 -91 
Q 1250 -91 836 529 
Q 422 1150 422 2328 
Q 422 3509 836 4129 
Q 1250 4750 2034 4750 
z
" id="DejaVuSans-30" transform="scale(0.015625)"/>
       </defs>
       <use xlink:href="#DejaVuSans-31"/>
       <use x="63.623047" xlink:href="#DejaVuSans-30"/>
      </g>
     </g>
    </g>
    <g id="xtick_4">
     <g id="line2d_4">
      <g>
       <use style="stroke:#000000;stroke-width:0.8;" x="158.008523" xlink:href="#m91c78fda46" y="164.018125"/>
      </g>
     </g>
     <g id="text_4">
      <!-- 15 -->
      <g transform="translate(151.646023 178.616562)scale(0.1 -0.1)">
       <use xlink:href="#DejaVuSans-31"/>
       <use x="63.623047" xlink:href="#DejaVuSans-35"/>
      </g>
     </g>
    </g>
    <g id="xtick_5">
     <g id="line2d_5">
      <g>
       <use style="stroke:#000000;stroke-width:0.8;" x="197.951705" xlink:href="#m91c78fda46" y="164.018125"/>
      </g>
     </g>
     <g id="text_5">
      <!-- 20 -->
      <g transform="translate(191.589205 178.616562)scale(0.1 -0.1)">
       <defs>
        <path d="M 1228 531 
L 3431 531 
L 3431 0 
L 469 0 
L 469 531 
Q 828 903 1448 1529 
Q 2069 2156 2228 2338 
Q 2531 2678 2651 2914 
Q 2772 3150 2772 3378 
Q 2772 3750 2511 3984 
Q 2250 4219 1831 4219 
Q 1534 4219 1204 4116 
Q 875 4013 500 3803 
L 500 4441 
Q 881 4594 1212 4672 
Q 1544 4750 1819 4750 
Q 2544 4750 2975 4387 
Q 3406 4025 3406 3419 
Q 3406 3131 3298 2873 
Q 3191 2616 2906 2266 
Q 2828 2175 2409 1742 
Q 1991 1309 1228 531 
z
" id="DejaVuSans-32" transform="scale(0.015625)"/>
       </defs>
       <use xlink:href="#DejaVuSans-32"/>
       <use x="63.623047" xlink:href="#DejaVuSans-30"/>
      </g>
     </g>
    </g>
    <g id="xtick_6">
     <g id="line2d_6">
      <g>
       <use style="stroke:#000000;stroke-width:0.8;" x="237.894886" xlink:href="#m91c78fda46" y="164.018125"/>
      </g>
     </g>
     <g id="text_6">
      <!-- 25 -->
      <g transform="translate(231.532386 178.616562)scale(0.1 -0.1)">
       <use xlink:href="#DejaVuSans-32"/>
       <use x="63.623047" xlink:href="#DejaVuSans-35"/>
      </g>
     </g>
    </g>
    <g id="text_7">
     <!-- Number of Shots -->
     <g transform="translate(99.980469 192.294687)scale(0.1 -0.1)">
      <defs>
       <path d="M 628 4666 
L 1478 4666 
L 3547 763 
L 3547 4666 
L 4159 4666 
L 4159 0 
L 3309 0 
L 1241 3903 
L 1241 0 
L 628 0 
L 628 4666 
z
" id="DejaVuSans-4e" transform="scale(0.015625)"/>
       <path d="M 544 1381 
L 544 3500 
L 1119 3500 
L 1119 1403 
Q 1119 906 1312 657 
Q 1506 409 1894 409 
Q 2359 409 2629 706 
Q 2900 1003 2900 1516 
L 2900 3500 
L 3475 3500 
L 3475 0 
L 2900 0 
L 2900 538 
Q 2691 219 2414 64 
Q 2138 -91 1772 -91 
Q 1169 -91 856 284 
Q 544 659 544 1381 
z
M 1991 3584 
L 1991 3584 
z
" id="DejaVuSans-75" transform="scale(0.015625)"/>
       <path d="M 3328 2828 
Q 3544 3216 3844 3400 
Q 4144 3584 4550 3584 
Q 5097 3584 5394 3201 
Q 5691 2819 5691 2113 
L 5691 0 
L 5113 0 
L 5113 2094 
Q 5113 2597 4934 2840 
Q 4756 3084 4391 3084 
Q 3944 3084 3684 2787 
Q 3425 2491 3425 1978 
L 3425 0 
L 2847 0 
L 2847 2094 
Q 2847 2600 2669 2842 
Q 2491 3084 2119 3084 
Q 1678 3084 1418 2786 
Q 1159 2488 1159 1978 
L 1159 0 
L 581 0 
L 581 3500 
L 1159 3500 
L 1159 2956 
Q 1356 3278 1631 3431 
Q 1906 3584 2284 3584 
Q 2666 3584 2933 3390 
Q 3200 3197 3328 2828 
z
" id="DejaVuSans-6d" transform="scale(0.015625)"/>
       <path d="M 3116 1747 
Q 3116 2381 2855 2742 
Q 2594 3103 2138 3103 
Q 1681 3103 1420 2742 
Q 1159 2381 1159 1747 
Q 1159 1113 1420 752 
Q 1681 391 2138 391 
Q 2594 391 2855 752 
Q 3116 1113 3116 1747 
z
M 1159 2969 
Q 1341 3281 1617 3432 
Q 1894 3584 2278 3584 
Q 2916 3584 3314 3078 
Q 3713 2572 3713 1747 
Q 3713 922 3314 415 
Q 2916 -91 2278 -91 
Q 1894 -91 1617 61 
Q 1341 213 1159 525 
L 1159 0 
L 581 0 
L 581 4863 
L 1159 4863 
L 1159 2969 
z
" id="DejaVuSans-62" transform="scale(0.015625)"/>
       <path d="M 3597 1894 
L 3597 1613 
L 953 1613 
Q 991 1019 1311 708 
Q 1631 397 2203 397 
Q 2534 397 2845 478 
Q 3156 559 3463 722 
L 3463 178 
Q 3153 47 2828 -22 
Q 2503 -91 2169 -91 
Q 1331 -91 842 396 
Q 353 884 353 1716 
Q 353 2575 817 3079 
Q 1281 3584 2069 3584 
Q 2775 3584 3186 3129 
Q 3597 2675 3597 1894 
z
M 3022 2063 
Q 3016 2534 2758 2815 
Q 2500 3097 2075 3097 
Q 1594 3097 1305 2825 
Q 1016 2553 972 2059 
L 3022 2063 
z
" id="DejaVuSans-65" transform="scale(0.015625)"/>
       <path d="M 2631 2963 
Q 2534 3019 2420 3045 
Q 2306 3072 2169 3072 
Q 1681 3072 1420 2755 
Q 1159 2438 1159 1844 
L 1159 0 
L 581 0 
L 581 3500 
L 1159 3500 
L 1159 2956 
Q 1341 3275 1631 3429 
Q 1922 3584 2338 3584 
Q 2397 3584 2469 3576 
Q 2541 3569 2628 3553 
L 2631 2963 
z
" id="DejaVuSans-72" transform="scale(0.015625)"/>
       <path id="DejaVuSans-20" transform="scale(0.015625)"/>
       <path d="M 1959 3097 
Q 1497 3097 1228 2736 
Q 959 2375 959 1747 
Q 959 1119 1226 758 
Q 1494 397 1959 397 
Q 2419 397 2687 759 
Q 2956 1122 2956 1747 
Q 2956 2369 2687 2733 
Q 2419 3097 1959 3097 
z
M 1959 3584 
Q 2709 3584 3137 3096 
Q 3566 2609 3566 1747 
Q 3566 888 3137 398 
Q 2709 -91 1959 -91 
Q 1206 -91 779 398 
Q 353 888 353 1747 
Q 353 2609 779 3096 
Q 1206 3584 1959 3584 
z
" id="DejaVuSans-6f" transform="scale(0.015625)"/>
       <path d="M 2375 4863 
L 2375 4384 
L 1825 4384 
Q 1516 4384 1395 4259 
Q 1275 4134 1275 3809 
L 1275 3500 
L 2222 3500 
L 2222 3053 
L 1275 3053 
L 1275 0 
L 697 0 
L 697 3053 
L 147 3053 
L 147 3500 
L 697 3500 
L 697 3744 
Q 697 4328 969 4595 
Q 1241 4863 1831 4863 
L 2375 4863 
z
" id="DejaVuSans-66" transform="scale(0.015625)"/>
       <path d="M 3425 4513 
L 3425 3897 
Q 3066 4069 2747 4153 
Q 2428 4238 2131 4238 
Q 1616 4238 1336 4038 
Q 1056 3838 1056 3469 
Q 1056 3159 1242 3001 
Q 1428 2844 1947 2747 
L 2328 2669 
Q 3034 2534 3370 2195 
Q 3706 1856 3706 1288 
Q 3706 609 3251 259 
Q 2797 -91 1919 -91 
Q 1588 -91 1214 -16 
Q 841 59 441 206 
L 441 856 
Q 825 641 1194 531 
Q 1563 422 1919 422 
Q 2459 422 2753 634 
Q 3047 847 3047 1241 
Q 3047 1584 2836 1778 
Q 2625 1972 2144 2069 
L 1759 2144 
Q 1053 2284 737 2584 
Q 422 2884 422 3419 
Q 422 4038 858 4394 
Q 1294 4750 2059 4750 
Q 2388 4750 2728 4690 
Q 3069 4631 3425 4513 
z
" id="DejaVuSans-53" transform="scale(0.015625)"/>
       <path d="M 3513 2113 
L 3513 0 
L 2938 0 
L 2938 2094 
Q 2938 2591 2744 2837 
Q 2550 3084 2163 3084 
Q 1697 3084 1428 2787 
Q 1159 2491 1159 1978 
L 1159 0 
L 581 0 
L 581 4863 
L 1159 4863 
L 1159 2956 
Q 1366 3272 1645 3428 
Q 1925 3584 2291 3584 
Q 2894 3584 3203 3211 
Q 3513 2838 3513 2113 
z
" id="DejaVuSans-68" transform="scale(0.015625)"/>
       <path d="M 1172 4494 
L 1172 3500 
L 2356 3500 
L 2356 3053 
L 1172 3053 
L 1172 1153 
Q 1172 725 1289 603 
Q 1406 481 1766 481 
L 2356 481 
L 2356 0 
L 1766 0 
Q 1100 0 847 248 
Q 594 497 594 1153 
L 594 3053 
L 172 3053 
L 172 3500 
L 594 3500 
L 594 4494 
L 1172 4494 
z
" id="DejaVuSans-74" transform="scale(0.015625)"/>
       <path d="M 2834 3397 
L 2834 2853 
Q 2591 2978 2328 3040 
Q 2066 3103 1784 3103 
Q 1356 3103 1142 2972 
Q 928 2841 928 2578 
Q 928 2378 1081 2264 
Q 1234 2150 1697 2047 
L 1894 2003 
Q 2506 1872 2764 1633 
Q 3022 1394 3022 966 
Q 3022 478 2636 193 
Q 2250 -91 1575 -91 
Q 1294 -91 989 -36 
Q 684 19 347 128 
L 347 722 
Q 666 556 975 473 
Q 1284 391 1588 391 
Q 1994 391 2212 530 
Q 2431 669 2431 922 
Q 2431 1156 2273 1281 
Q 2116 1406 1581 1522 
L 1381 1569 
Q 847 1681 609 1914 
Q 372 2147 372 2553 
Q 372 3047 722 3315 
Q 1072 3584 1716 3584 
Q 2034 3584 2315 3537 
Q 2597 3491 2834 3397 
z
" id="DejaVuSans-73" transform="scale(0.015625)"/>
      </defs>
      <use xlink:href="#DejaVuSans-4e"/>
      <use x="74.804688" xlink:href="#DejaVuSans-75"/>
      <use x="138.183594" xlink:href="#DejaVuSans-6d"/>
      <use x="235.595703" xlink:href="#DejaVuSans-62"/>
      <use x="299.072266" xlink:href="#DejaVuSans-65"/>
      <use x="360.595703" xlink:href="#DejaVuSans-72"/>
      <use x="401.708984" xlink:href="#DejaVuSans-20"/>
      <use x="433.496094" xlink:href="#DejaVuSans-6f"/>
      <use x="494.677734" xlink:href="#DejaVuSans-66"/>
      <use x="529.882812" xlink:href="#DejaVuSans-20"/>
      <use x="561.669922" xlink:href="#DejaVuSans-53"/>
      <use x="625.146484" xlink:href="#DejaVuSans-68"/>
      <use x="688.525391" xlink:href="#DejaVuSans-6f"/>
      <use x="749.707031" xlink:href="#DejaVuSans-74"/>
      <use x="788.916016" xlink:href="#DejaVuSans-73"/>
     </g>
    </g>
   </g>
   <g id="matplotlib.axis_2">
    <g id="ytick_1">
     <g id="line2d_7">
      <defs>
       <path d="M 0 0 
L -3.5 0 
" id="md9e9562661" style="stroke:#000000;stroke-width:0.8;"/>
      </defs>
      <g>
       <use style="stroke:#000000;stroke-width:0.8;" x="36.58125" xlink:href="#md9e9562661" y="157.145817"/>
      </g>
     </g>
     <g id="text_8">
      <!-- 0.0 -->
      <g transform="translate(13.678125 160.945036)scale(0.1 -0.1)">
       <defs>
        <path d="M 684 794 
L 1344 794 
L 1344 0 
L 684 0 
L 684 794 
z
" id="DejaVuSans-2e" transform="scale(0.015625)"/>
       </defs>
       <use xlink:href="#DejaVuSans-30"/>
       <use x="63.623047" xlink:href="#DejaVuSans-2e"/>
       <use x="95.410156" xlink:href="#DejaVuSans-30"/>
      </g>
     </g>
    </g>
    <g id="ytick_2">
     <g id="line2d_8">
      <g>
       <use style="stroke:#000000;stroke-width:0.8;" x="36.58125" xlink:href="#md9e9562661" y="134.238125"/>
      </g>
     </g>
     <g id="text_9">
      <!-- 0.5 -->
      <g transform="translate(13.678125 138.037344)scale(0.1 -0.1)">
       <use xlink:href="#DejaVuSans-30"/>
       <use x="63.623047" xlink:href="#DejaVuSans-2e"/>
       <use x="95.410156" xlink:href="#DejaVuSans-35"/>
      </g>
     </g>
    </g>
    <g id="ytick_3">
     <g id="line2d_9">
      <g>
       <use style="stroke:#000000;stroke-width:0.8;" x="36.58125" xlink:href="#md9e9562661" y="111.330433"/>
      </g>
     </g>
     <g id="text_10">
      <!-- 1.0 -->
      <g transform="translate(13.678125 115.129651)scale(0.1 -0.1)">
       <use xlink:href="#DejaVuSans-31"/>
       <use x="63.623047" xlink:href="#DejaVuSans-2e"/>
       <use x="95.410156" xlink:href="#DejaVuSans-30"/>
      </g>
     </g>
    </g>
    <g id="ytick_4">
     <g id="line2d_10">
      <g>
       <use style="stroke:#000000;stroke-width:0.8;" x="36.58125" xlink:href="#md9e9562661" y="88.42274"/>
      </g>
     </g>
     <g id="text_11">
      <!-- 1.5 -->
      <g transform="translate(13.678125 92.221959)scale(0.1 -0.1)">
       <use xlink:href="#DejaVuSans-31"/>
       <use x="63.623047" xlink:href="#DejaVuSans-2e"/>
       <use x="95.410156" xlink:href="#DejaVuSans-35"/>
      </g>
     </g>
    </g>
    <g id="ytick_5">
     <g id="line2d_11">
      <g>
       <use style="stroke:#000000;stroke-width:0.8;" x="36.58125" xlink:href="#md9e9562661" y="65.515048"/>
      </g>
     </g>
     <g id="text_12">
      <!-- 2.0 -->
      <g transform="translate(13.678125 69.314267)scale(0.1 -0.1)">
       <use xlink:href="#DejaVuSans-32"/>
       <use x="63.623047" xlink:href="#DejaVuSans-2e"/>
       <use x="95.410156" xlink:href="#DejaVuSans-30"/>
      </g>
     </g>
    </g>
    <g id="ytick_6">
     <g id="line2d_12">
      <g>
       <use style="stroke:#000000;stroke-width:0.8;" x="36.58125" xlink:href="#md9e9562661" y="42.607356"/>
      </g>
     </g>
     <g id="text_13">
      <!-- 2.5 -->
      <g transform="translate(13.678125 46.406575)scale(0.1 -0.1)">
       <use xlink:href="#DejaVuSans-32"/>
       <use x="63.623047" xlink:href="#DejaVuSans-2e"/>
       <use x="95.410156" xlink:href="#DejaVuSans-35"/>
      </g>
     </g>
    </g>
    <g id="ytick_7">
     <g id="line2d_13">
      <g>
       <use style="stroke:#000000;stroke-width:0.8;" x="36.58125" xlink:href="#md9e9562661" y="19.699663"/>
      </g>
     </g>
     <g id="text_14">
      <!-- 3.0 -->
      <g transform="translate(13.678125 23.498882)scale(0.1 -0.1)">
       <defs>
        <path d="M 2597 2516 
Q 3050 2419 3304 2112 
Q 3559 1806 3559 1356 
Q 3559 666 3084 287 
Q 2609 -91 1734 -91 
Q 1441 -91 1130 -33 
Q 819 25 488 141 
L 488 750 
Q 750 597 1062 519 
Q 1375 441 1716 441 
Q 2309 441 2620 675 
Q 2931 909 2931 1356 
Q 2931 1769 2642 2001 
Q 2353 2234 1838 2234 
L 1294 2234 
L 1294 2753 
L 1863 2753 
Q 2328 2753 2575 2939 
Q 2822 3125 2822 3475 
Q 2822 3834 2567 4026 
Q 2313 4219 1838 4219 
Q 1578 4219 1281 4162 
Q 984 4106 628 3988 
L 628 4550 
Q 988 4650 1302 4700 
Q 1616 4750 1894 4750 
Q 2613 4750 3031 4423 
Q 3450 4097 3450 3541 
Q 3450 3153 3228 2886 
Q 3006 2619 2597 2516 
z
" id="DejaVuSans-33" transform="scale(0.015625)"/>
       </defs>
       <use xlink:href="#DejaVuSans-33"/>
       <use x="63.623047" xlink:href="#DejaVuSans-2e"/>
       <use x="95.410156" xlink:href="#DejaVuSans-30"/>
      </g>
     </g>
    </g>
    <g id="text_15">
     <!-- $\Delta(ACC)$% -->
     <g transform="translate(7.598438 112.068125)rotate(-90)scale(0.1 -0.1)">
      <defs>
       <path d="M 2188 4044 
L 906 525 
L 3472 525 
L 2188 4044 
z
M 50 0 
L 1831 4666 
L 2547 4666 
L 4325 0 
L 50 0 
z
" id="DejaVuSans-394" transform="scale(0.015625)"/>
       <path d="M 1984 4856 
Q 1566 4138 1362 3434 
Q 1159 2731 1159 2009 
Q 1159 1288 1364 580 
Q 1569 -128 1984 -844 
L 1484 -844 
Q 1016 -109 783 600 
Q 550 1309 550 2009 
Q 550 2706 781 3412 
Q 1013 4119 1484 4856 
L 1984 4856 
z
" id="DejaVuSans-28" transform="scale(0.015625)"/>
       <path d="M 2356 4666 
L 3072 4666 
L 3938 0 
L 3278 0 
L 3084 1197 
L 984 1197 
L 325 0 
L -341 0 
L 2356 4666 
z
M 2584 4044 
L 1275 1722 
L 2988 1722 
L 2584 4044 
z
" id="DejaVuSans-Oblique-41" transform="scale(0.015625)"/>
       <path d="M 4447 4306 
L 4319 3641 
Q 4019 3944 3683 4091 
Q 3347 4238 2956 4238 
Q 2422 4238 2017 3981 
Q 1613 3725 1319 3200 
Q 1131 2863 1032 2486 
Q 934 2109 934 1728 
Q 934 1091 1264 756 
Q 1594 422 2222 422 
Q 2656 422 3056 561 
Q 3456 700 3834 978 
L 3688 231 
Q 3316 72 2936 -9 
Q 2556 -91 2175 -91 
Q 1278 -91 773 396 
Q 269 884 269 1753 
Q 269 2309 461 2846 
Q 653 3384 1013 3828 
Q 1394 4300 1883 4525 
Q 2372 4750 3022 4750 
Q 3422 4750 3780 4639 
Q 4138 4528 4447 4306 
z
" id="DejaVuSans-Oblique-43" transform="scale(0.015625)"/>
       <path d="M 513 4856 
L 1013 4856 
Q 1481 4119 1714 3412 
Q 1947 2706 1947 2009 
Q 1947 1309 1714 600 
Q 1481 -109 1013 -844 
L 513 -844 
Q 928 -128 1133 580 
Q 1338 1288 1338 2009 
Q 1338 2731 1133 3434 
Q 928 4138 513 4856 
z
" id="DejaVuSans-29" transform="scale(0.015625)"/>
       <path d="M 4653 2053 
Q 4381 2053 4226 1822 
Q 4072 1591 4072 1178 
Q 4072 772 4226 539 
Q 4381 306 4653 306 
Q 4919 306 5073 539 
Q 5228 772 5228 1178 
Q 5228 1588 5073 1820 
Q 4919 2053 4653 2053 
z
M 4653 2450 
Q 5147 2450 5437 2106 
Q 5728 1763 5728 1178 
Q 5728 594 5436 251 
Q 5144 -91 4653 -91 
Q 4153 -91 3862 251 
Q 3572 594 3572 1178 
Q 3572 1766 3864 2108 
Q 4156 2450 4653 2450 
z
M 1428 4353 
Q 1159 4353 1004 4120 
Q 850 3888 850 3481 
Q 850 3069 1003 2837 
Q 1156 2606 1428 2606 
Q 1700 2606 1854 2837 
Q 2009 3069 2009 3481 
Q 2009 3884 1853 4118 
Q 1697 4353 1428 4353 
z
M 4250 4750 
L 4750 4750 
L 1831 -91 
L 1331 -91 
L 4250 4750 
z
M 1428 4750 
Q 1922 4750 2215 4408 
Q 2509 4066 2509 3481 
Q 2509 2891 2217 2550 
Q 1925 2209 1428 2209 
Q 931 2209 642 2551 
Q 353 2894 353 3481 
Q 353 4063 643 4406 
Q 934 4750 1428 4750 
z
" id="DejaVuSans-25" transform="scale(0.015625)"/>
      </defs>
      <use transform="translate(0 0.125)" xlink:href="#DejaVuSans-394"/>
      <use transform="translate(68.408203 0.125)" xlink:href="#DejaVuSans-28"/>
      <use transform="translate(107.421875 0.125)" xlink:href="#DejaVuSans-Oblique-41"/>
      <use transform="translate(175.830078 0.125)" xlink:href="#DejaVuSans-Oblique-43"/>
      <use transform="translate(245.654297 0.125)" xlink:href="#DejaVuSans-Oblique-43"/>
      <use transform="translate(315.478516 0.125)" xlink:href="#DejaVuSans-29"/>
      <use transform="translate(354.492188 0.125)" xlink:href="#DejaVuSans-25"/>
     </g>
    </g>
   </g>
   <g id="LineCollection_1">
    <path clip-path="url(#p31bb5cdbfc)" d="M 46.167614 157.145817 
L 46.167614 157.145817 
" style="fill:none;stroke:#023eff;stroke-width:1.5;"/>
    <path clip-path="url(#p31bb5cdbfc)" d="M 78.122159 157.145817 
L 78.122159 157.145817 
" style="fill:none;stroke:#023eff;stroke-width:1.5;"/>
    <path clip-path="url(#p31bb5cdbfc)" d="M 118.065341 158.168509 
L 118.065341 153.851446 
" style="fill:none;stroke:#023eff;stroke-width:1.5;"/>
    <path clip-path="url(#p31bb5cdbfc)" d="M 158.008523 151.086929 
L 158.008523 146.100294 
" style="fill:none;stroke:#023eff;stroke-width:1.5;"/>
    <path clip-path="url(#p31bb5cdbfc)" d="M 197.951705 146.0946 
L 197.951705 141.032328 
" style="fill:none;stroke:#023eff;stroke-width:1.5;"/>
    <path clip-path="url(#p31bb5cdbfc)" d="M 237.894886 144.290368 
L 237.894886 139.457676 
" style="fill:none;stroke:#023eff;stroke-width:1.5;"/>
   </g>
   <g id="LineCollection_2">
    <path clip-path="url(#p31bb5cdbfc)" d="M 46.167614 157.145817 
L 46.167614 157.145817 
" style="fill:none;stroke:#ff7c00;stroke-width:1.5;"/>
    <path clip-path="url(#p31bb5cdbfc)" d="M 78.122159 157.50728 
L 78.122159 155.524431 
" style="fill:none;stroke:#ff7c00;stroke-width:1.5;"/>
    <path clip-path="url(#p31bb5cdbfc)" d="M 118.065341 150.504699 
L 118.065341 146.329364 
" style="fill:none;stroke:#ff7c00;stroke-width:1.5;"/>
    <path clip-path="url(#p31bb5cdbfc)" d="M 158.008523 142.036049 
L 158.008523 136.815475 
" style="fill:none;stroke:#ff7c00;stroke-width:1.5;"/>
    <path clip-path="url(#p31bb5cdbfc)" d="M 197.951705 134.856686 
L 197.951705 129.582081 
" style="fill:none;stroke:#ff7c00;stroke-width:1.5;"/>
    <path clip-path="url(#p31bb5cdbfc)" d="M 237.894886 130.039146 
L 237.894886 124.558857 
" style="fill:none;stroke:#ff7c00;stroke-width:1.5;"/>
   </g>
   <g id="LineCollection_3">
    <path clip-path="url(#p31bb5cdbfc)" d="M 46.167614 157.145817 
L 46.167614 157.145817 
" style="fill:none;stroke:#1ac938;stroke-width:1.5;"/>
    <path clip-path="url(#p31bb5cdbfc)" d="M 78.122159 157.505486 
L 78.122159 156.29936 
" style="fill:none;stroke:#1ac938;stroke-width:1.5;"/>
    <path clip-path="url(#p31bb5cdbfc)" d="M 118.065341 147.956425 
L 118.065341 143.188895 
" style="fill:none;stroke:#1ac938;stroke-width:1.5;"/>
    <path clip-path="url(#p31bb5cdbfc)" d="M 158.008523 139.319629 
L 158.008523 134.473112 
" style="fill:none;stroke:#1ac938;stroke-width:1.5;"/>
    <path clip-path="url(#p31bb5cdbfc)" d="M 197.951705 131.741566 
L 197.951705 126.588482 
" style="fill:none;stroke:#1ac938;stroke-width:1.5;"/>
    <path clip-path="url(#p31bb5cdbfc)" d="M 237.894886 133.649929 
L 237.894886 128.526703 
" style="fill:none;stroke:#1ac938;stroke-width:1.5;"/>
   </g>
   <g id="LineCollection_4">
    <path clip-path="url(#p31bb5cdbfc)" d="M 46.167614 157.145817 
L 46.167614 157.145817 
" style="fill:none;stroke:#e8000b;stroke-width:1.5;"/>
    <path clip-path="url(#p31bb5cdbfc)" d="M 78.122159 156.292063 
L 78.122159 151.642687 
" style="fill:none;stroke:#e8000b;stroke-width:1.5;"/>
    <path clip-path="url(#p31bb5cdbfc)" d="M 118.065341 122.8892 
L 118.065341 117.649206 
" style="fill:none;stroke:#e8000b;stroke-width:1.5;"/>
    <path clip-path="url(#p31bb5cdbfc)" d="M 158.008523 91.450334 
L 158.008523 85.691031 
" style="fill:none;stroke:#e8000b;stroke-width:1.5;"/>
    <path clip-path="url(#p31bb5cdbfc)" d="M 197.951705 59.927331 
L 197.951705 54.036524 
" style="fill:none;stroke:#e8000b;stroke-width:1.5;"/>
    <path clip-path="url(#p31bb5cdbfc)" d="M 237.894886 35.245426 
L 237.894886 29.371439 
" style="fill:none;stroke:#e8000b;stroke-width:1.5;"/>
   </g>
   <g id="LineCollection_5">
    <path clip-path="url(#p31bb5cdbfc)" d="M 46.167614 157.145817 
L 46.167614 157.145817 
" style="fill:none;stroke:#8b2be2;stroke-width:1.5;"/>
    <path clip-path="url(#p31bb5cdbfc)" d="M 78.122159 155.37501 
L 78.122159 150.641221 
" style="fill:none;stroke:#8b2be2;stroke-width:1.5;"/>
    <path clip-path="url(#p31bb5cdbfc)" d="M 118.065341 118.683403 
L 118.065341 113.255073 
" style="fill:none;stroke:#8b2be2;stroke-width:1.5;"/>
    <path clip-path="url(#p31bb5cdbfc)" d="M 158.008523 84.09247 
L 158.008523 78.750676 
" style="fill:none;stroke:#8b2be2;stroke-width:1.5;"/>
    <path clip-path="url(#p31bb5cdbfc)" d="M 197.951705 51.589013 
L 197.951705 45.957661 
" style="fill:none;stroke:#8b2be2;stroke-width:1.5;"/>
    <path clip-path="url(#p31bb5cdbfc)" d="M 237.894886 25.590757 
L 237.894886 19.860005 
" style="fill:none;stroke:#8b2be2;stroke-width:1.5;"/>
   </g>
   <g id="line2d_14">
    <path clip-path="url(#p31bb5cdbfc)" d="M 46.167614 157.145817 
L 78.122159 157.145817 
L 118.065341 156.009978 
L 158.008523 148.593612 
L 197.951705 143.563464 
L 237.894886 141.874022 
" style="fill:none;stroke:#023eff;stroke-linecap:square;stroke-width:1.5;"/>
    <defs>
     <path d="M 0 3 
C 0.795609 3 1.55874 2.683901 2.12132 2.12132 
C 2.683901 1.55874 3 0.795609 3 0 
C 3 -0.795609 2.683901 -1.55874 2.12132 -2.12132 
C 1.55874 -2.683901 0.795609 -3 0 -3 
C -0.795609 -3 -1.55874 -2.683901 -2.12132 -2.12132 
C -2.683901 -1.55874 -3 -0.795609 -3 0 
C -3 0.795609 -2.683901 1.55874 -2.12132 2.12132 
C -1.55874 2.683901 -0.795609 3 0 3 
z
" id="mafeed72cee" style="stroke:#023eff;"/>
    </defs>
    <g clip-path="url(#p31bb5cdbfc)">
     <use style="fill:#023eff;stroke:#023eff;" x="46.167614" xlink:href="#mafeed72cee" y="157.145817"/>
     <use style="fill:#023eff;stroke:#023eff;" x="78.122159" xlink:href="#mafeed72cee" y="157.145817"/>
     <use style="fill:#023eff;stroke:#023eff;" x="118.065341" xlink:href="#mafeed72cee" y="156.009978"/>
     <use style="fill:#023eff;stroke:#023eff;" x="158.008523" xlink:href="#mafeed72cee" y="148.593612"/>
     <use style="fill:#023eff;stroke:#023eff;" x="197.951705" xlink:href="#mafeed72cee" y="143.563464"/>
     <use style="fill:#023eff;stroke:#023eff;" x="237.894886" xlink:href="#mafeed72cee" y="141.874022"/>
    </g>
   </g>
   <g id="line2d_15">
    <path clip-path="url(#p31bb5cdbfc)" d="M 46.167614 157.145817 
L 78.122159 156.515856 
L 118.065341 148.417032 
L 158.008523 139.425762 
L 197.951705 132.219383 
L 237.894886 127.299002 
" style="fill:none;stroke:#ff7c00;stroke-linecap:square;stroke-width:1.5;"/>
    <defs>
     <path d="M 0 3 
C 0.795609 3 1.55874 2.683901 2.12132 2.12132 
C 2.683901 1.55874 3 0.795609 3 0 
C 3 -0.795609 2.683901 -1.55874 2.12132 -2.12132 
C 1.55874 -2.683901 0.795609 -3 0 -3 
C -0.795609 -3 -1.55874 -2.683901 -2.12132 -2.12132 
C -2.683901 -1.55874 -3 -0.795609 -3 0 
C -3 0.795609 -2.683901 1.55874 -2.12132 2.12132 
C -1.55874 2.683901 -0.795609 3 0 3 
z
" id="mb3a586deef" style="stroke:#ff7c00;"/>
    </defs>
    <g clip-path="url(#p31bb5cdbfc)">
     <use style="fill:#ff7c00;stroke:#ff7c00;" x="46.167614" xlink:href="#mb3a586deef" y="157.145817"/>
     <use style="fill:#ff7c00;stroke:#ff7c00;" x="78.122159" xlink:href="#mb3a586deef" y="156.515856"/>
     <use style="fill:#ff7c00;stroke:#ff7c00;" x="118.065341" xlink:href="#mb3a586deef" y="148.417032"/>
     <use style="fill:#ff7c00;stroke:#ff7c00;" x="158.008523" xlink:href="#mb3a586deef" y="139.425762"/>
     <use style="fill:#ff7c00;stroke:#ff7c00;" x="197.951705" xlink:href="#mb3a586deef" y="132.219383"/>
     <use style="fill:#ff7c00;stroke:#ff7c00;" x="237.894886" xlink:href="#mb3a586deef" y="127.299002"/>
    </g>
   </g>
   <g id="line2d_16">
    <path clip-path="url(#p31bb5cdbfc)" d="M 46.167614 157.145817 
L 78.122159 156.902423 
L 118.065341 145.57266 
L 158.008523 136.896371 
L 197.951705 129.165024 
L 237.894886 131.088316 
" style="fill:none;stroke:#1ac938;stroke-linecap:square;stroke-width:1.5;"/>
    <defs>
     <path d="M 0 3 
C 0.795609 3 1.55874 2.683901 2.12132 2.12132 
C 2.683901 1.55874 3 0.795609 3 0 
C 3 -0.795609 2.683901 -1.55874 2.12132 -2.12132 
C 1.55874 -2.683901 0.795609 -3 0 -3 
C -0.795609 -3 -1.55874 -2.683901 -2.12132 -2.12132 
C -2.683901 -1.55874 -3 -0.795609 -3 0 
C -3 0.795609 -2.683901 1.55874 -2.12132 2.12132 
C -1.55874 2.683901 -0.795609 3 0 3 
z
" id="m8e9f8fe9fb" style="stroke:#1ac938;"/>
    </defs>
    <g clip-path="url(#p31bb5cdbfc)">
     <use style="fill:#1ac938;stroke:#1ac938;" x="46.167614" xlink:href="#m8e9f8fe9fb" y="157.145817"/>
     <use style="fill:#1ac938;stroke:#1ac938;" x="78.122159" xlink:href="#m8e9f8fe9fb" y="156.902423"/>
     <use style="fill:#1ac938;stroke:#1ac938;" x="118.065341" xlink:href="#m8e9f8fe9fb" y="145.57266"/>
     <use style="fill:#1ac938;stroke:#1ac938;" x="158.008523" xlink:href="#m8e9f8fe9fb" y="136.896371"/>
     <use style="fill:#1ac938;stroke:#1ac938;" x="197.951705" xlink:href="#m8e9f8fe9fb" y="129.165024"/>
     <use style="fill:#1ac938;stroke:#1ac938;" x="237.894886" xlink:href="#m8e9f8fe9fb" y="131.088316"/>
    </g>
   </g>
   <g id="line2d_17">
    <path clip-path="url(#p31bb5cdbfc)" d="M 46.167614 157.145817 
L 78.122159 153.967375 
L 118.065341 120.269203 
L 158.008523 88.570682 
L 197.951705 56.981927 
L 237.894886 32.308433 
" style="fill:none;stroke:#e8000b;stroke-linecap:square;stroke-width:1.5;"/>
    <defs>
     <path d="M 0 3 
C 0.795609 3 1.55874 2.683901 2.12132 2.12132 
C 2.683901 1.55874 3 0.795609 3 0 
C 3 -0.795609 2.683901 -1.55874 2.12132 -2.12132 
C 1.55874 -2.683901 0.795609 -3 0 -3 
C -0.795609 -3 -1.55874 -2.683901 -2.12132 -2.12132 
C -2.683901 -1.55874 -3 -0.795609 -3 0 
C -3 0.795609 -2.683901 1.55874 -2.12132 2.12132 
C -1.55874 2.683901 -0.795609 3 0 3 
z
" id="m72c514adfc" style="stroke:#e8000b;"/>
    </defs>
    <g clip-path="url(#p31bb5cdbfc)">
     <use style="fill:#e8000b;stroke:#e8000b;" x="46.167614" xlink:href="#m72c514adfc" y="157.145817"/>
     <use style="fill:#e8000b;stroke:#e8000b;" x="78.122159" xlink:href="#m72c514adfc" y="153.967375"/>
     <use style="fill:#e8000b;stroke:#e8000b;" x="118.065341" xlink:href="#m72c514adfc" y="120.269203"/>
     <use style="fill:#e8000b;stroke:#e8000b;" x="158.008523" xlink:href="#m72c514adfc" y="88.570682"/>
     <use style="fill:#e8000b;stroke:#e8000b;" x="197.951705" xlink:href="#m72c514adfc" y="56.981927"/>
     <use style="fill:#e8000b;stroke:#e8000b;" x="237.894886" xlink:href="#m72c514adfc" y="32.308433"/>
    </g>
   </g>
   <g id="line2d_18">
    <path clip-path="url(#p31bb5cdbfc)" d="M 46.167614 157.145817 
L 78.122159 153.008115 
L 118.065341 115.969238 
L 158.008523 81.421573 
L 197.951705 48.773337 
L 237.894886 22.725381 
" style="fill:none;stroke:#8b2be2;stroke-linecap:square;stroke-width:1.5;"/>
    <defs>
     <path d="M 0 3 
C 0.795609 3 1.55874 2.683901 2.12132 2.12132 
C 2.683901 1.55874 3 0.795609 3 0 
C 3 -0.795609 2.683901 -1.55874 2.12132 -2.12132 
C 1.55874 -2.683901 0.795609 -3 0 -3 
C -0.795609 -3 -1.55874 -2.683901 -2.12132 -2.12132 
C -2.683901 -1.55874 -3 -0.795609 -3 0 
C -3 0.795609 -2.683901 1.55874 -2.12132 2.12132 
C -1.55874 2.683901 -0.795609 3 0 3 
z
" id="m045b7bb0a0" style="stroke:#8b2be2;"/>
    </defs>
    <g clip-path="url(#p31bb5cdbfc)">
     <use style="fill:#8b2be2;stroke:#8b2be2;" x="46.167614" xlink:href="#m045b7bb0a0" y="157.145817"/>
     <use style="fill:#8b2be2;stroke:#8b2be2;" x="78.122159" xlink:href="#m045b7bb0a0" y="153.008115"/>
     <use style="fill:#8b2be2;stroke:#8b2be2;" x="118.065341" xlink:href="#m045b7bb0a0" y="115.969238"/>
     <use style="fill:#8b2be2;stroke:#8b2be2;" x="158.008523" xlink:href="#m045b7bb0a0" y="81.421573"/>
     <use style="fill:#8b2be2;stroke:#8b2be2;" x="197.951705" xlink:href="#m045b7bb0a0" y="48.773337"/>
     <use style="fill:#8b2be2;stroke:#8b2be2;" x="237.894886" xlink:href="#m045b7bb0a0" y="22.725381"/>
    </g>
   </g>
   <g id="patch_3">
    <path d="M 36.58125 164.018125 
L 36.58125 15.118125 
" style="fill:none;stroke:#000000;stroke-linecap:square;stroke-linejoin:miter;stroke-width:0.8;"/>
   </g>
   <g id="patch_4">
    <path d="M 247.48125 164.018125 
L 247.48125 15.118125 
" style="fill:none;stroke:#000000;stroke-linecap:square;stroke-linejoin:miter;stroke-width:0.8;"/>
   </g>
   <g id="patch_5">
    <path d="M 36.58125 164.018125 
L 247.48125 164.018125 
" style="fill:none;stroke:#000000;stroke-linecap:square;stroke-linejoin:miter;stroke-width:0.8;"/>
   </g>
   <g id="patch_6">
    <path d="M 36.58125 15.118125 
L 247.48125 15.118125 
" style="fill:none;stroke:#000000;stroke-linecap:square;stroke-linejoin:miter;stroke-width:0.8;"/>
   </g>
   <g id="text_16">
    <!-- Firth Bias Reduction (mini-ImageNet) -->
    <g transform="translate(31.274062 9.118125)scale(0.12 -0.12)">
     <defs>
      <path d="M 628 4666 
L 3309 4666 
L 3309 4134 
L 1259 4134 
L 1259 2759 
L 3109 2759 
L 3109 2228 
L 1259 2228 
L 1259 0 
L 628 0 
L 628 4666 
z
" id="DejaVuSans-46" transform="scale(0.015625)"/>
      <path d="M 603 3500 
L 1178 3500 
L 1178 0 
L 603 0 
L 603 3500 
z
M 603 4863 
L 1178 4863 
L 1178 4134 
L 603 4134 
L 603 4863 
z
" id="DejaVuSans-69" transform="scale(0.015625)"/>
      <path d="M 1259 2228 
L 1259 519 
L 2272 519 
Q 2781 519 3026 730 
Q 3272 941 3272 1375 
Q 3272 1813 3026 2020 
Q 2781 2228 2272 2228 
L 1259 2228 
z
M 1259 4147 
L 1259 2741 
L 2194 2741 
Q 2656 2741 2882 2914 
Q 3109 3088 3109 3444 
Q 3109 3797 2882 3972 
Q 2656 4147 2194 4147 
L 1259 4147 
z
M 628 4666 
L 2241 4666 
Q 2963 4666 3353 4366 
Q 3744 4066 3744 3513 
Q 3744 3084 3544 2831 
Q 3344 2578 2956 2516 
Q 3422 2416 3680 2098 
Q 3938 1781 3938 1306 
Q 3938 681 3513 340 
Q 3088 0 2303 0 
L 628 0 
L 628 4666 
z
" id="DejaVuSans-42" transform="scale(0.015625)"/>
      <path d="M 2194 1759 
Q 1497 1759 1228 1600 
Q 959 1441 959 1056 
Q 959 750 1161 570 
Q 1363 391 1709 391 
Q 2188 391 2477 730 
Q 2766 1069 2766 1631 
L 2766 1759 
L 2194 1759 
z
M 3341 1997 
L 3341 0 
L 2766 0 
L 2766 531 
Q 2569 213 2275 61 
Q 1981 -91 1556 -91 
Q 1019 -91 701 211 
Q 384 513 384 1019 
Q 384 1609 779 1909 
Q 1175 2209 1959 2209 
L 2766 2209 
L 2766 2266 
Q 2766 2663 2505 2880 
Q 2244 3097 1772 3097 
Q 1472 3097 1187 3025 
Q 903 2953 641 2809 
L 641 3341 
Q 956 3463 1253 3523 
Q 1550 3584 1831 3584 
Q 2591 3584 2966 3190 
Q 3341 2797 3341 1997 
z
" id="DejaVuSans-61" transform="scale(0.015625)"/>
      <path d="M 2841 2188 
Q 3044 2119 3236 1894 
Q 3428 1669 3622 1275 
L 4263 0 
L 3584 0 
L 2988 1197 
Q 2756 1666 2539 1819 
Q 2322 1972 1947 1972 
L 1259 1972 
L 1259 0 
L 628 0 
L 628 4666 
L 2053 4666 
Q 2853 4666 3247 4331 
Q 3641 3997 3641 3322 
Q 3641 2881 3436 2590 
Q 3231 2300 2841 2188 
z
M 1259 4147 
L 1259 2491 
L 2053 2491 
Q 2509 2491 2742 2702 
Q 2975 2913 2975 3322 
Q 2975 3731 2742 3939 
Q 2509 4147 2053 4147 
L 1259 4147 
z
" id="DejaVuSans-52" transform="scale(0.015625)"/>
      <path d="M 2906 2969 
L 2906 4863 
L 3481 4863 
L 3481 0 
L 2906 0 
L 2906 525 
Q 2725 213 2448 61 
Q 2172 -91 1784 -91 
Q 1150 -91 751 415 
Q 353 922 353 1747 
Q 353 2572 751 3078 
Q 1150 3584 1784 3584 
Q 2172 3584 2448 3432 
Q 2725 3281 2906 2969 
z
M 947 1747 
Q 947 1113 1208 752 
Q 1469 391 1925 391 
Q 2381 391 2643 752 
Q 2906 1113 2906 1747 
Q 2906 2381 2643 2742 
Q 2381 3103 1925 3103 
Q 1469 3103 1208 2742 
Q 947 2381 947 1747 
z
" id="DejaVuSans-64" transform="scale(0.015625)"/>
      <path d="M 3122 3366 
L 3122 2828 
Q 2878 2963 2633 3030 
Q 2388 3097 2138 3097 
Q 1578 3097 1268 2742 
Q 959 2388 959 1747 
Q 959 1106 1268 751 
Q 1578 397 2138 397 
Q 2388 397 2633 464 
Q 2878 531 3122 666 
L 3122 134 
Q 2881 22 2623 -34 
Q 2366 -91 2075 -91 
Q 1284 -91 818 406 
Q 353 903 353 1747 
Q 353 2603 823 3093 
Q 1294 3584 2113 3584 
Q 2378 3584 2631 3529 
Q 2884 3475 3122 3366 
z
" id="DejaVuSans-63" transform="scale(0.015625)"/>
      <path d="M 3513 2113 
L 3513 0 
L 2938 0 
L 2938 2094 
Q 2938 2591 2744 2837 
Q 2550 3084 2163 3084 
Q 1697 3084 1428 2787 
Q 1159 2491 1159 1978 
L 1159 0 
L 581 0 
L 581 3500 
L 1159 3500 
L 1159 2956 
Q 1366 3272 1645 3428 
Q 1925 3584 2291 3584 
Q 2894 3584 3203 3211 
Q 3513 2838 3513 2113 
z
" id="DejaVuSans-6e" transform="scale(0.015625)"/>
      <path d="M 313 2009 
L 1997 2009 
L 1997 1497 
L 313 1497 
L 313 2009 
z
" id="DejaVuSans-2d" transform="scale(0.015625)"/>
      <path d="M 628 4666 
L 1259 4666 
L 1259 0 
L 628 0 
L 628 4666 
z
" id="DejaVuSans-49" transform="scale(0.015625)"/>
      <path d="M 2906 1791 
Q 2906 2416 2648 2759 
Q 2391 3103 1925 3103 
Q 1463 3103 1205 2759 
Q 947 2416 947 1791 
Q 947 1169 1205 825 
Q 1463 481 1925 481 
Q 2391 481 2648 825 
Q 2906 1169 2906 1791 
z
M 3481 434 
Q 3481 -459 3084 -895 
Q 2688 -1331 1869 -1331 
Q 1566 -1331 1297 -1286 
Q 1028 -1241 775 -1147 
L 775 -588 
Q 1028 -725 1275 -790 
Q 1522 -856 1778 -856 
Q 2344 -856 2625 -561 
Q 2906 -266 2906 331 
L 2906 616 
Q 2728 306 2450 153 
Q 2172 0 1784 0 
Q 1141 0 747 490 
Q 353 981 353 1791 
Q 353 2603 747 3093 
Q 1141 3584 1784 3584 
Q 2172 3584 2450 3431 
Q 2728 3278 2906 2969 
L 2906 3500 
L 3481 3500 
L 3481 434 
z
" id="DejaVuSans-67" transform="scale(0.015625)"/>
     </defs>
     <use xlink:href="#DejaVuSans-46"/>
     <use x="50.269531" xlink:href="#DejaVuSans-69"/>
     <use x="78.052734" xlink:href="#DejaVuSans-72"/>
     <use x="119.166016" xlink:href="#DejaVuSans-74"/>
     <use x="158.375" xlink:href="#DejaVuSans-68"/>
     <use x="221.753906" xlink:href="#DejaVuSans-20"/>
     <use x="253.541016" xlink:href="#DejaVuSans-42"/>
     <use x="322.144531" xlink:href="#DejaVuSans-69"/>
     <use x="349.927734" xlink:href="#DejaVuSans-61"/>
     <use x="411.207031" xlink:href="#DejaVuSans-73"/>
     <use x="463.306641" xlink:href="#DejaVuSans-20"/>
     <use x="495.09375" xlink:href="#DejaVuSans-52"/>
     <use x="560.076172" xlink:href="#DejaVuSans-65"/>
     <use x="621.599609" xlink:href="#DejaVuSans-64"/>
     <use x="685.076172" xlink:href="#DejaVuSans-75"/>
     <use x="748.455078" xlink:href="#DejaVuSans-63"/>
     <use x="803.435547" xlink:href="#DejaVuSans-74"/>
     <use x="842.644531" xlink:href="#DejaVuSans-69"/>
     <use x="870.427734" xlink:href="#DejaVuSans-6f"/>
     <use x="931.609375" xlink:href="#DejaVuSans-6e"/>
     <use x="994.988281" xlink:href="#DejaVuSans-20"/>
     <use x="1026.775391" xlink:href="#DejaVuSans-28"/>
     <use x="1065.789062" xlink:href="#DejaVuSans-6d"/>
     <use x="1163.201172" xlink:href="#DejaVuSans-69"/>
     <use x="1190.984375" xlink:href="#DejaVuSans-6e"/>
     <use x="1254.363281" xlink:href="#DejaVuSans-69"/>
     <use x="1282.146484" xlink:href="#DejaVuSans-2d"/>
     <use x="1318.230469" xlink:href="#DejaVuSans-49"/>
     <use x="1347.722656" xlink:href="#DejaVuSans-6d"/>
     <use x="1445.134766" xlink:href="#DejaVuSans-61"/>
     <use x="1506.414062" xlink:href="#DejaVuSans-67"/>
     <use x="1569.890625" xlink:href="#DejaVuSans-65"/>
     <use x="1631.414062" xlink:href="#DejaVuSans-4e"/>
     <use x="1706.21875" xlink:href="#DejaVuSans-65"/>
     <use x="1767.742188" xlink:href="#DejaVuSans-74"/>
     <use x="1806.951172" xlink:href="#DejaVuSans-29"/>
    </g>
   </g>
   <g id="legend_1">
    <g id="patch_7">
     <path d="M 43.58125 96.50875 
L 130.084375 96.50875 
Q 132.084375 96.50875 132.084375 94.50875 
L 132.084375 22.118125 
Q 132.084375 20.118125 130.084375 20.118125 
L 43.58125 20.118125 
Q 41.58125 20.118125 41.58125 22.118125 
L 41.58125 94.50875 
Q 41.58125 96.50875 43.58125 96.50875 
z
" style="fill:#ffffff;opacity:0.8;stroke:#cccccc;stroke-linejoin:miter;"/>
    </g>
    <g id="LineCollection_6">
     <path d="M 55.58125 33.216563 
L 55.58125 23.216563 
" style="fill:none;stroke:#023eff;stroke-width:1.5;"/>
    </g>
    <g id="line2d_19">
     <path d="M 45.58125 28.216563 
L 65.58125 28.216563 
" style="fill:none;stroke:#023eff;stroke-linecap:square;stroke-width:1.5;"/>
    </g>
    <g id="line2d_20">
     <g>
      <use style="fill:#023eff;stroke:#023eff;" x="55.58125" xlink:href="#mafeed72cee" y="28.216563"/>
     </g>
    </g>
    <g id="text_17">
     <!-- ResNet10 -->
     <g transform="translate(73.58125 31.716563)scale(0.1 -0.1)">
      <use xlink:href="#DejaVuSans-52"/>
      <use x="64.982422" xlink:href="#DejaVuSans-65"/>
      <use x="126.505859" xlink:href="#DejaVuSans-73"/>
      <use x="178.605469" xlink:href="#DejaVuSans-4e"/>
      <use x="253.410156" xlink:href="#DejaVuSans-65"/>
      <use x="314.933594" xlink:href="#DejaVuSans-74"/>
      <use x="354.142578" xlink:href="#DejaVuSans-31"/>
      <use x="417.765625" xlink:href="#DejaVuSans-30"/>
     </g>
    </g>
    <g id="LineCollection_7">
     <path d="M 55.58125 47.894688 
L 55.58125 37.894688 
" style="fill:none;stroke:#ff7c00;stroke-width:1.5;"/>
    </g>
    <g id="line2d_21">
     <path d="M 45.58125 42.894688 
L 65.58125 42.894688 
" style="fill:none;stroke:#ff7c00;stroke-linecap:square;stroke-width:1.5;"/>
    </g>
    <g id="line2d_22">
     <g>
      <use style="fill:#ff7c00;stroke:#ff7c00;" x="55.58125" xlink:href="#mb3a586deef" y="42.894688"/>
     </g>
    </g>
    <g id="text_18">
     <!-- ResNet18 -->
     <g transform="translate(73.58125 46.394688)scale(0.1 -0.1)">
      <defs>
       <path d="M 2034 2216 
Q 1584 2216 1326 1975 
Q 1069 1734 1069 1313 
Q 1069 891 1326 650 
Q 1584 409 2034 409 
Q 2484 409 2743 651 
Q 3003 894 3003 1313 
Q 3003 1734 2745 1975 
Q 2488 2216 2034 2216 
z
M 1403 2484 
Q 997 2584 770 2862 
Q 544 3141 544 3541 
Q 544 4100 942 4425 
Q 1341 4750 2034 4750 
Q 2731 4750 3128 4425 
Q 3525 4100 3525 3541 
Q 3525 3141 3298 2862 
Q 3072 2584 2669 2484 
Q 3125 2378 3379 2068 
Q 3634 1759 3634 1313 
Q 3634 634 3220 271 
Q 2806 -91 2034 -91 
Q 1263 -91 848 271 
Q 434 634 434 1313 
Q 434 1759 690 2068 
Q 947 2378 1403 2484 
z
M 1172 3481 
Q 1172 3119 1398 2916 
Q 1625 2713 2034 2713 
Q 2441 2713 2670 2916 
Q 2900 3119 2900 3481 
Q 2900 3844 2670 4047 
Q 2441 4250 2034 4250 
Q 1625 4250 1398 4047 
Q 1172 3844 1172 3481 
z
" id="DejaVuSans-38" transform="scale(0.015625)"/>
      </defs>
      <use xlink:href="#DejaVuSans-52"/>
      <use x="64.982422" xlink:href="#DejaVuSans-65"/>
      <use x="126.505859" xlink:href="#DejaVuSans-73"/>
      <use x="178.605469" xlink:href="#DejaVuSans-4e"/>
      <use x="253.410156" xlink:href="#DejaVuSans-65"/>
      <use x="314.933594" xlink:href="#DejaVuSans-74"/>
      <use x="354.142578" xlink:href="#DejaVuSans-31"/>
      <use x="417.765625" xlink:href="#DejaVuSans-38"/>
     </g>
    </g>
    <g id="LineCollection_8">
     <path d="M 55.58125 62.572812 
L 55.58125 52.572812 
" style="fill:none;stroke:#1ac938;stroke-width:1.5;"/>
    </g>
    <g id="line2d_23">
     <path d="M 45.58125 57.572812 
L 65.58125 57.572812 
" style="fill:none;stroke:#1ac938;stroke-linecap:square;stroke-width:1.5;"/>
    </g>
    <g id="line2d_24">
     <g>
      <use style="fill:#1ac938;stroke:#1ac938;" x="55.58125" xlink:href="#m8e9f8fe9fb" y="57.572812"/>
     </g>
    </g>
    <g id="text_19">
     <!-- ResNet34 -->
     <g transform="translate(73.58125 61.072812)scale(0.1 -0.1)">
      <defs>
       <path d="M 2419 4116 
L 825 1625 
L 2419 1625 
L 2419 4116 
z
M 2253 4666 
L 3047 4666 
L 3047 1625 
L 3713 1625 
L 3713 1100 
L 3047 1100 
L 3047 0 
L 2419 0 
L 2419 1100 
L 313 1100 
L 313 1709 
L 2253 4666 
z
" id="DejaVuSans-34" transform="scale(0.015625)"/>
      </defs>
      <use xlink:href="#DejaVuSans-52"/>
      <use x="64.982422" xlink:href="#DejaVuSans-65"/>
      <use x="126.505859" xlink:href="#DejaVuSans-73"/>
      <use x="178.605469" xlink:href="#DejaVuSans-4e"/>
      <use x="253.410156" xlink:href="#DejaVuSans-65"/>
      <use x="314.933594" xlink:href="#DejaVuSans-74"/>
      <use x="354.142578" xlink:href="#DejaVuSans-33"/>
      <use x="417.765625" xlink:href="#DejaVuSans-34"/>
     </g>
    </g>
    <g id="LineCollection_9">
     <path d="M 55.58125 77.250938 
L 55.58125 67.250938 
" style="fill:none;stroke:#e8000b;stroke-width:1.5;"/>
    </g>
    <g id="line2d_25">
     <path d="M 45.58125 72.250938 
L 65.58125 72.250938 
" style="fill:none;stroke:#e8000b;stroke-linecap:square;stroke-width:1.5;"/>
    </g>
    <g id="line2d_26">
     <g>
      <use style="fill:#e8000b;stroke:#e8000b;" x="55.58125" xlink:href="#m72c514adfc" y="72.250938"/>
     </g>
    </g>
    <g id="text_20">
     <!-- ResNet50 -->
     <g transform="translate(73.58125 75.750938)scale(0.1 -0.1)">
      <use xlink:href="#DejaVuSans-52"/>
      <use x="64.982422" xlink:href="#DejaVuSans-65"/>
      <use x="126.505859" xlink:href="#DejaVuSans-73"/>
      <use x="178.605469" xlink:href="#DejaVuSans-4e"/>
      <use x="253.410156" xlink:href="#DejaVuSans-65"/>
      <use x="314.933594" xlink:href="#DejaVuSans-74"/>
      <use x="354.142578" xlink:href="#DejaVuSans-35"/>
      <use x="417.765625" xlink:href="#DejaVuSans-30"/>
     </g>
    </g>
    <g id="LineCollection_10">
     <path d="M 55.58125 91.929063 
L 55.58125 81.929063 
" style="fill:none;stroke:#8b2be2;stroke-width:1.5;"/>
    </g>
    <g id="line2d_27">
     <path d="M 45.58125 86.929063 
L 65.58125 86.929063 
" style="fill:none;stroke:#8b2be2;stroke-linecap:square;stroke-width:1.5;"/>
    </g>
    <g id="line2d_28">
     <g>
      <use style="fill:#8b2be2;stroke:#8b2be2;" x="55.58125" xlink:href="#m045b7bb0a0" y="86.929063"/>
     </g>
    </g>
    <g id="text_21">
     <!-- ResNet101 -->
     <g transform="translate(73.58125 90.429063)scale(0.1 -0.1)">
      <use xlink:href="#DejaVuSans-52"/>
      <use x="64.982422" xlink:href="#DejaVuSans-65"/>
      <use x="126.505859" xlink:href="#DejaVuSans-73"/>
      <use x="178.605469" xlink:href="#DejaVuSans-4e"/>
      <use x="253.410156" xlink:href="#DejaVuSans-65"/>
      <use x="314.933594" xlink:href="#DejaVuSans-74"/>
      <use x="354.142578" xlink:href="#DejaVuSans-31"/>
      <use x="417.765625" xlink:href="#DejaVuSans-30"/>
      <use x="481.388672" xlink:href="#DejaVuSans-31"/>
     </g>
    </g>
   </g>
  </g>
 </g>
 <defs>
  <clipPath id="p31bb5cdbfc">
   <rect height="148.9" width="210.9" x="36.58125" y="15.118125"/>
  </clipPath>
 </defs>
</svg>
