<?xml version="1.0" encoding="utf-8" standalone="no"?>
<!DOCTYPE svg PUBLIC "-//W3C//DTD SVG 1.1//EN"
  "http://www.w3.org/Graphics/SVG/1.1/DTD/svg11.dtd">
<svg height="152.346125pt" version="1.1" viewBox="0 0 217.558133 152.346125" width="217.558133pt" xmlns="http://www.w3.org/2000/svg" xmlns:xlink="http://www.w3.org/1999/xlink">
 <metadata>
  <rdf:RDF xmlns:cc="http://creativecommons.org/ns#" xmlns:dc="http://purl.org/dc/elements/1.1/" xmlns:rdf="http://www.w3.org/1999/02/22-rdf-syntax-ns#">
   <cc:Work>
    <dc:type rdf:resource="http://purl.org/dc/dcmitype/StillImage"/>
    <dc:date>2022-03-30T22:26:15.649672</dc:date>
    <dc:format>image/svg+xml</dc:format>
    <dc:creator>
     <cc:Agent>
      <dc:title>Matplotlib v3.4.1, https://matplotlib.org/</dc:title>
     </cc:Agent>
    </dc:creator>
   </cc:Work>
  </rdf:RDF>
 </metadata>
 <defs>
  <style type="text/css">*{stroke-linecap:butt;stroke-linejoin:round;}</style>
 </defs>
 <g id="figure_1">
  <g id="patch_1">
   <path d="M 0 152.346125 
L 217.558133 152.346125 
L 217.558133 0 
L 0 0 
z
" style="fill:#ffffff;"/>
  </g>
  <g id="axes_1">
   <g id="patch_2">
    <path d="M 49.482813 121.968 
L 216.882812 121.968 
L 216.882812 0 
L 49.482813 0 
z
" style="fill:#ffffff;"/>
   </g>
   <g id="line2d_1">
    <path clip-path="url(#pd3dab1e52c)" d="M 57.091903 5.544 
L 80.047648 22.269605 
L 93.475898 32.053457 
L 103.003393 38.99521 
L 110.393492 44.379652 
L 116.431643 48.779062 
L 121.536826 52.498709 
L 125.959138 55.720815 
L 129.859893 58.562913 
L 133.349237 61.105257 
L 139.387387 65.504667 
L 146.777487 70.889109 
L 152.815637 75.288518 
L 156.304981 77.830862 
L 163.695081 83.215304 
L 167.448316 85.949919 
L 171.870627 89.172025 
L 174.838415 91.334361 
L 179.260726 94.556467 
L 186.650825 99.940909 
L 192.688976 104.340319 
L 197.79416 108.059966 
L 202.216471 111.282072 
L 209.273722 116.424 
" style="fill:none;stroke:#000000;stroke-dasharray:3.7,1.6;stroke-dashoffset:0;"/>
   </g>
   <g id="PathCollection_1">
    <defs>
     <path d="M 0 1.936492 
C 0.513564 1.936492 1.006162 1.732451 1.369306 1.369306 
C 1.732451 1.006162 1.936492 0.513564 1.936492 0 
C 1.936492 -0.513564 1.732451 -1.006162 1.369306 -1.369306 
C 1.006162 -1.732451 0.513564 -1.936492 0 -1.936492 
C -0.513564 -1.936492 -1.006162 -1.732451 -1.369306 -1.369306 
C -1.732451 -1.006162 -1.936492 -0.513564 -1.936492 0 
C -1.936492 0.513564 -1.732451 1.006162 -1.369306 1.369306 
C -1.006162 1.732451 -0.513564 1.936492 0 1.936492 
z
" id="m712df268ef" style="stroke:#800080;"/>
    </defs>
    <g clip-path="url(#pd3dab1e52c)">
     <use style="fill:#800080;stroke:#800080;" x="57.091903" xlink:href="#m712df268ef" y="11.209983"/>
     <use style="fill:#800080;stroke:#800080;" x="80.047648" xlink:href="#m712df268ef" y="24.366092"/>
     <use style="fill:#800080;stroke:#800080;" x="93.475898" xlink:href="#m712df268ef" y="34.965926"/>
     <use style="fill:#800080;stroke:#800080;" x="103.003393" xlink:href="#m712df268ef" y="41.016303"/>
     <use style="fill:#800080;stroke:#800080;" x="110.393492" xlink:href="#m712df268ef" y="43.668986"/>
     <use style="fill:#800080;stroke:#800080;" x="116.431643" xlink:href="#m712df268ef" y="50.030785"/>
     <use style="fill:#800080;stroke:#800080;" x="121.536826" xlink:href="#m712df268ef" y="53.63217"/>
     <use style="fill:#800080;stroke:#800080;" x="125.959138" xlink:href="#m712df268ef" y="55.421273"/>
     <use style="fill:#800080;stroke:#800080;" x="129.859893" xlink:href="#m712df268ef" y="56.940314"/>
     <use style="fill:#800080;stroke:#800080;" x="133.349237" xlink:href="#m712df268ef" y="61.665224"/>
     <use style="fill:#800080;stroke:#800080;" x="139.387387" xlink:href="#m712df268ef" y="66.005589"/>
     <use style="fill:#800080;stroke:#800080;" x="146.777487" xlink:href="#m712df268ef" y="71.036557"/>
     <use style="fill:#800080;stroke:#800080;" x="152.815637" xlink:href="#m712df268ef" y="76.815427"/>
     <use style="fill:#800080;stroke:#800080;" x="156.304981" xlink:href="#m712df268ef" y="79.714412"/>
     <use style="fill:#800080;stroke:#800080;" x="163.695081" xlink:href="#m712df268ef" y="82.980143"/>
     <use style="fill:#800080;stroke:#800080;" x="167.448316" xlink:href="#m712df268ef" y="86.35672"/>
     <use style="fill:#800080;stroke:#800080;" x="171.870627" xlink:href="#m712df268ef" y="92.258677"/>
     <use style="fill:#800080;stroke:#800080;" x="174.838415" xlink:href="#m712df268ef" y="92.316762"/>
     <use style="fill:#800080;stroke:#800080;" x="179.260726" xlink:href="#m712df268ef" y="94.389724"/>
     <use style="fill:#800080;stroke:#800080;" x="186.650825" xlink:href="#m712df268ef" y="99.83009"/>
     <use style="fill:#800080;stroke:#800080;" x="192.688976" xlink:href="#m712df268ef" y="103.136188"/>
     <use style="fill:#800080;stroke:#800080;" x="197.79416" xlink:href="#m712df268ef" y="108.757156"/>
     <use style="fill:#800080;stroke:#800080;" x="202.216471" xlink:href="#m712df268ef" y="113.045681"/>
     <use style="fill:#800080;stroke:#800080;" x="209.273722" xlink:href="#m712df268ef" y="116.349181"/>
    </g>
   </g>
   <g id="matplotlib.axis_1">
    <g id="xtick_1">
     <g id="line2d_2">
      <defs>
       <path d="M 0 0 
L 0 3.5 
" id="m5b5a2a2909" style="stroke:#000000;stroke-width:0.8;"/>
      </defs>
      <g>
       <use style="stroke:#000000;stroke-width:0.8;" x="57.091903" xlink:href="#m5b5a2a2909" y="121.968"/>
      </g>
     </g>
     <g id="text_1">
      <!-- 0.0 -->
      <g transform="translate(49.140341 136.566438)scale(0.1 -0.1)">
       <defs>
        <path d="M 2034 4250 
Q 1547 4250 1301 3770 
Q 1056 3291 1056 2328 
Q 1056 1369 1301 889 
Q 1547 409 2034 409 
Q 2525 409 2770 889 
Q 3016 1369 3016 2328 
Q 3016 3291 2770 3770 
Q 2525 4250 2034 4250 
z
M 2034 4750 
Q 2819 4750 3233 4129 
Q 3647 3509 3647 2328 
Q 3647 1150 3233 529 
Q 2819 -91 2034 -91 
Q 1250 -91 836 529 
Q 422 1150 422 2328 
Q 422 3509 836 4129 
Q 1250 4750 2034 4750 
z
" id="DejaVuSans-30" transform="scale(0.015625)"/>
        <path d="M 684 794 
L 1344 794 
L 1344 0 
L 684 0 
L 684 794 
z
" id="DejaVuSans-2e" transform="scale(0.015625)"/>
       </defs>
       <use xlink:href="#DejaVuSans-30"/>
       <use x="63.623047" xlink:href="#DejaVuSans-2e"/>
       <use x="95.410156" xlink:href="#DejaVuSans-30"/>
      </g>
     </g>
    </g>
    <g id="xtick_2">
     <g id="line2d_3">
      <g>
       <use style="stroke:#000000;stroke-width:0.8;" x="95.22057" xlink:href="#m5b5a2a2909" y="121.968"/>
      </g>
     </g>
     <g id="text_2">
      <!-- 0.5 -->
      <g transform="translate(87.269008 136.566438)scale(0.1 -0.1)">
       <defs>
        <path d="M 691 4666 
L 3169 4666 
L 3169 4134 
L 1269 4134 
L 1269 2991 
Q 1406 3038 1543 3061 
Q 1681 3084 1819 3084 
Q 2600 3084 3056 2656 
Q 3513 2228 3513 1497 
Q 3513 744 3044 326 
Q 2575 -91 1722 -91 
Q 1428 -91 1123 -41 
Q 819 9 494 109 
L 494 744 
Q 775 591 1075 516 
Q 1375 441 1709 441 
Q 2250 441 2565 725 
Q 2881 1009 2881 1497 
Q 2881 1984 2565 2268 
Q 2250 2553 1709 2553 
Q 1456 2553 1204 2497 
Q 953 2441 691 2322 
L 691 4666 
z
" id="DejaVuSans-35" transform="scale(0.015625)"/>
       </defs>
       <use xlink:href="#DejaVuSans-30"/>
       <use x="63.623047" xlink:href="#DejaVuSans-2e"/>
       <use x="95.410156" xlink:href="#DejaVuSans-35"/>
      </g>
     </g>
    </g>
    <g id="xtick_3">
     <g id="line2d_4">
      <g>
       <use style="stroke:#000000;stroke-width:0.8;" x="133.349237" xlink:href="#m5b5a2a2909" y="121.968"/>
      </g>
     </g>
     <g id="text_3">
      <!-- 1.0 -->
      <g transform="translate(125.397674 136.566438)scale(0.1 -0.1)">
       <defs>
        <path d="M 794 531 
L 1825 531 
L 1825 4091 
L 703 3866 
L 703 4441 
L 1819 4666 
L 2450 4666 
L 2450 531 
L 3481 531 
L 3481 0 
L 794 0 
L 794 531 
z
" id="DejaVuSans-31" transform="scale(0.015625)"/>
       </defs>
       <use xlink:href="#DejaVuSans-31"/>
       <use x="63.623047" xlink:href="#DejaVuSans-2e"/>
       <use x="95.410156" xlink:href="#DejaVuSans-30"/>
      </g>
     </g>
    </g>
    <g id="xtick_4">
     <g id="line2d_5">
      <g>
       <use style="stroke:#000000;stroke-width:0.8;" x="171.477903" xlink:href="#m5b5a2a2909" y="121.968"/>
      </g>
     </g>
     <g id="text_4">
      <!-- 1.5 -->
      <g transform="translate(163.526341 136.566438)scale(0.1 -0.1)">
       <use xlink:href="#DejaVuSans-31"/>
       <use x="63.623047" xlink:href="#DejaVuSans-2e"/>
       <use x="95.410156" xlink:href="#DejaVuSans-35"/>
      </g>
     </g>
    </g>
    <g id="xtick_5">
     <g id="line2d_6">
      <g>
       <use style="stroke:#000000;stroke-width:0.8;" x="209.60657" xlink:href="#m5b5a2a2909" y="121.968"/>
      </g>
     </g>
     <g id="text_5">
      <!-- 2.0 -->
      <g transform="translate(201.655008 136.566438)scale(0.1 -0.1)">
       <defs>
        <path d="M 1228 531 
L 3431 531 
L 3431 0 
L 469 0 
L 469 531 
Q 828 903 1448 1529 
Q 2069 2156 2228 2338 
Q 2531 2678 2651 2914 
Q 2772 3150 2772 3378 
Q 2772 3750 2511 3984 
Q 2250 4219 1831 4219 
Q 1534 4219 1204 4116 
Q 875 4013 500 3803 
L 500 4441 
Q 881 4594 1212 4672 
Q 1544 4750 1819 4750 
Q 2544 4750 2975 4387 
Q 3406 4025 3406 3419 
Q 3406 3131 3298 2873 
Q 3191 2616 2906 2266 
Q 2828 2175 2409 1742 
Q 1991 1309 1228 531 
z
" id="DejaVuSans-32" transform="scale(0.015625)"/>
       </defs>
       <use xlink:href="#DejaVuSans-32"/>
       <use x="63.623047" xlink:href="#DejaVuSans-2e"/>
       <use x="95.410156" xlink:href="#DejaVuSans-30"/>
      </g>
     </g>
    </g>
    <g id="text_6">
     <!-- $\log_{10}(N)$ -->
     <g transform="translate(113.232813 150.246125)scale(0.1 -0.1)">
      <defs>
       <path d="M 603 4863 
L 1178 4863 
L 1178 0 
L 603 0 
L 603 4863 
z
" id="DejaVuSans-6c" transform="scale(0.015625)"/>
       <path d="M 1959 3097 
Q 1497 3097 1228 2736 
Q 959 2375 959 1747 
Q 959 1119 1226 758 
Q 1494 397 1959 397 
Q 2419 397 2687 759 
Q 2956 1122 2956 1747 
Q 2956 2369 2687 2733 
Q 2419 3097 1959 3097 
z
M 1959 3584 
Q 2709 3584 3137 3096 
Q 3566 2609 3566 1747 
Q 3566 888 3137 398 
Q 2709 -91 1959 -91 
Q 1206 -91 779 398 
Q 353 888 353 1747 
Q 353 2609 779 3096 
Q 1206 3584 1959 3584 
z
" id="DejaVuSans-6f" transform="scale(0.015625)"/>
       <path d="M 2906 1791 
Q 2906 2416 2648 2759 
Q 2391 3103 1925 3103 
Q 1463 3103 1205 2759 
Q 947 2416 947 1791 
Q 947 1169 1205 825 
Q 1463 481 1925 481 
Q 2391 481 2648 825 
Q 2906 1169 2906 1791 
z
M 3481 434 
Q 3481 -459 3084 -895 
Q 2688 -1331 1869 -1331 
Q 1566 -1331 1297 -1286 
Q 1028 -1241 775 -1147 
L 775 -588 
Q 1028 -725 1275 -790 
Q 1522 -856 1778 -856 
Q 2344 -856 2625 -561 
Q 2906 -266 2906 331 
L 2906 616 
Q 2728 306 2450 153 
Q 2172 0 1784 0 
Q 1141 0 747 490 
Q 353 981 353 1791 
Q 353 2603 747 3093 
Q 1141 3584 1784 3584 
Q 2172 3584 2450 3431 
Q 2728 3278 2906 2969 
L 2906 3500 
L 3481 3500 
L 3481 434 
z
" id="DejaVuSans-67" transform="scale(0.015625)"/>
       <path d="M 1984 4856 
Q 1566 4138 1362 3434 
Q 1159 2731 1159 2009 
Q 1159 1288 1364 580 
Q 1569 -128 1984 -844 
L 1484 -844 
Q 1016 -109 783 600 
Q 550 1309 550 2009 
Q 550 2706 781 3412 
Q 1013 4119 1484 4856 
L 1984 4856 
z
" id="DejaVuSans-28" transform="scale(0.015625)"/>
       <path d="M 1081 4666 
L 1931 4666 
L 3219 666 
L 4000 4666 
L 4616 4666 
L 3706 0 
L 2853 0 
L 1569 4025 
L 788 0 
L 172 0 
L 1081 4666 
z
" id="DejaVuSans-Oblique-4e" transform="scale(0.015625)"/>
       <path d="M 513 4856 
L 1013 4856 
Q 1481 4119 1714 3412 
Q 1947 2706 1947 2009 
Q 1947 1309 1714 600 
Q 1481 -109 1013 -844 
L 513 -844 
Q 928 -128 1133 580 
Q 1338 1288 1338 2009 
Q 1338 2731 1133 3434 
Q 928 4138 513 4856 
z
" id="DejaVuSans-29" transform="scale(0.015625)"/>
      </defs>
      <use transform="translate(0 0.015625)" xlink:href="#DejaVuSans-6c"/>
      <use transform="translate(27.783203 0.015625)" xlink:href="#DejaVuSans-6f"/>
      <use transform="translate(88.964844 0.015625)" xlink:href="#DejaVuSans-67"/>
      <use transform="translate(153.398438 -16.390625)scale(0.7)" xlink:href="#DejaVuSans-31"/>
      <use transform="translate(197.93457 -16.390625)scale(0.7)" xlink:href="#DejaVuSans-30"/>
      <use transform="translate(245.205078 0.015625)" xlink:href="#DejaVuSans-28"/>
      <use transform="translate(284.21875 0.015625)" xlink:href="#DejaVuSans-Oblique-4e"/>
      <use transform="translate(359.023438 0.015625)" xlink:href="#DejaVuSans-29"/>
     </g>
    </g>
   </g>
   <g id="matplotlib.axis_2">
    <g id="ytick_1">
     <g id="line2d_7">
      <defs>
       <path d="M 0 0 
L -3.5 0 
" id="mad9f54fc48" style="stroke:#000000;stroke-width:0.8;"/>
      </defs>
      <g>
       <use style="stroke:#000000;stroke-width:0.8;" x="49.482813" xlink:href="#mad9f54fc48" y="111.110388"/>
      </g>
     </g>
     <g id="text_7">
      <!-- −2.5 -->
      <g transform="translate(18.2 114.909607)scale(0.1 -0.1)">
       <defs>
        <path d="M 678 2272 
L 4684 2272 
L 4684 1741 
L 678 1741 
L 678 2272 
z
" id="DejaVuSans-2212" transform="scale(0.015625)"/>
       </defs>
       <use xlink:href="#DejaVuSans-2212"/>
       <use x="83.789062" xlink:href="#DejaVuSans-32"/>
       <use x="147.412109" xlink:href="#DejaVuSans-2e"/>
       <use x="179.199219" xlink:href="#DejaVuSans-35"/>
      </g>
     </g>
    </g>
    <g id="ytick_2">
     <g id="line2d_8">
      <g>
       <use style="stroke:#000000;stroke-width:0.8;" x="49.482813" xlink:href="#mad9f54fc48" y="83.32976"/>
      </g>
     </g>
     <g id="text_8">
      <!-- −2.0 -->
      <g transform="translate(18.2 87.128979)scale(0.1 -0.1)">
       <use xlink:href="#DejaVuSans-2212"/>
       <use x="83.789062" xlink:href="#DejaVuSans-32"/>
       <use x="147.412109" xlink:href="#DejaVuSans-2e"/>
       <use x="179.199219" xlink:href="#DejaVuSans-30"/>
      </g>
     </g>
    </g>
    <g id="ytick_3">
     <g id="line2d_9">
      <g>
       <use style="stroke:#000000;stroke-width:0.8;" x="49.482813" xlink:href="#mad9f54fc48" y="55.549131"/>
      </g>
     </g>
     <g id="text_9">
      <!-- −1.5 -->
      <g transform="translate(18.2 59.34835)scale(0.1 -0.1)">
       <use xlink:href="#DejaVuSans-2212"/>
       <use x="83.789062" xlink:href="#DejaVuSans-31"/>
       <use x="147.412109" xlink:href="#DejaVuSans-2e"/>
       <use x="179.199219" xlink:href="#DejaVuSans-35"/>
      </g>
     </g>
    </g>
    <g id="ytick_4">
     <g id="line2d_10">
      <g>
       <use style="stroke:#000000;stroke-width:0.8;" x="49.482813" xlink:href="#mad9f54fc48" y="27.768503"/>
      </g>
     </g>
     <g id="text_10">
      <!-- −1.0 -->
      <g transform="translate(18.2 31.567722)scale(0.1 -0.1)">
       <use xlink:href="#DejaVuSans-2212"/>
       <use x="83.789062" xlink:href="#DejaVuSans-31"/>
       <use x="147.412109" xlink:href="#DejaVuSans-2e"/>
       <use x="179.199219" xlink:href="#DejaVuSans-30"/>
      </g>
     </g>
    </g>
    <g id="text_11">
     <!-- $\log_{10}(E[\hat{\beta}_{MLE}^{(N)}]-\beta^{*})$ -->
     <g transform="translate(11.4 106.384)rotate(-90)scale(0.1 -0.1)">
      <defs>
       <path d="M 1081 4666 
L 4031 4666 
L 3928 4134 
L 1606 4134 
L 1338 2753 
L 3566 2753 
L 3463 2222 
L 1234 2222 
L 909 531 
L 3284 531 
L 3181 0 
L 172 0 
L 1081 4666 
z
" id="DejaVuSans-Oblique-45" transform="scale(0.015625)"/>
       <path d="M 550 4863 
L 1875 4863 
L 1875 4416 
L 1125 4416 
L 1125 -397 
L 1875 -397 
L 1875 -844 
L 550 -844 
L 550 4863 
z
" id="DejaVuSans-5b" transform="scale(0.015625)"/>
       <path d="M -1831 5119 
L -1369 5119 
L -603 3944 
L -1038 3944 
L -1600 4709 
L -2163 3944 
L -2597 3944 
L -1831 5119 
z
M -1600 3584 
L -1600 3584 
z
" id="DejaVuSans-302" transform="scale(0.015625)"/>
       <path d="M 872 216 
L 572 -1331 
L -6 -1331 
L 928 3478 
Q 1206 4903 2538 4903 
Q 3888 4903 3659 3700 
Q 3503 2844 2894 2531 
Q 3713 2250 3553 1416 
Q 3272 -69 1759 -66 
Q 1097 -63 872 216 
z
M 1019 966 
Q 1259 422 1875 425 
Q 2775 425 2966 1406 
Q 3138 2288 1675 2219 
L 1778 2750 
Q 2909 2731 3106 3750 
Q 3241 4438 2509 4434 
Q 1691 4434 1503 3459 
L 1019 966 
z
" id="DejaVuSans-Oblique-3b2" transform="scale(0.015625)"/>
       <path d="M 1081 4666 
L 2028 4666 
L 2572 1522 
L 4378 4666 
L 5350 4666 
L 4441 0 
L 3828 0 
L 4622 4091 
L 2791 897 
L 2175 897 
L 1581 4103 
L 788 0 
L 172 0 
L 1081 4666 
z
" id="DejaVuSans-Oblique-4d" transform="scale(0.015625)"/>
       <path d="M 1075 4666 
L 1709 4666 
L 909 525 
L 3181 525 
L 3078 0 
L 172 0 
L 1075 4666 
z
" id="DejaVuSans-Oblique-4c" transform="scale(0.015625)"/>
       <path d="M 1947 4863 
L 1947 -844 
L 622 -844 
L 622 -397 
L 1369 -397 
L 1369 4416 
L 622 4416 
L 622 4863 
L 1947 4863 
z
" id="DejaVuSans-5d" transform="scale(0.015625)"/>
       <path d="M 3009 3897 
L 1888 3291 
L 3009 2681 
L 2828 2375 
L 1778 3009 
L 1778 1831 
L 1422 1831 
L 1422 3009 
L 372 2375 
L 191 2681 
L 1313 3291 
L 191 3897 
L 372 4206 
L 1422 3572 
L 1422 4750 
L 1778 4750 
L 1778 3572 
L 2828 4206 
L 3009 3897 
z
" id="DejaVuSans-2a" transform="scale(0.015625)"/>
      </defs>
      <use transform="translate(0 0.90625)" xlink:href="#DejaVuSans-6c"/>
      <use transform="translate(27.783203 0.90625)" xlink:href="#DejaVuSans-6f"/>
      <use transform="translate(88.964844 0.90625)" xlink:href="#DejaVuSans-67"/>
      <use transform="translate(153.398438 -15.5)scale(0.7)" xlink:href="#DejaVuSans-31"/>
      <use transform="translate(197.93457 -15.5)scale(0.7)" xlink:href="#DejaVuSans-30"/>
      <use transform="translate(245.205078 0.90625)" xlink:href="#DejaVuSans-28"/>
      <use transform="translate(284.21875 0.90625)" xlink:href="#DejaVuSans-Oblique-45"/>
      <use transform="translate(347.402344 0.90625)" xlink:href="#DejaVuSans-5b"/>
      <use transform="translate(450.94873 34.015625)" xlink:href="#DejaVuSans-302"/>
      <use transform="translate(386.416016 0.90625)" xlink:href="#DejaVuSans-Oblique-3b2"/>
      <use transform="translate(451.191406 46.328125)scale(0.7)" xlink:href="#DejaVuSans-28"/>
      <use transform="translate(478.500977 46.328125)scale(0.7)" xlink:href="#DejaVuSans-Oblique-4e"/>
      <use transform="translate(530.864258 46.328125)scale(0.7)" xlink:href="#DejaVuSans-29"/>
      <use transform="translate(451.191406 -26.4375)scale(0.7)" xlink:href="#DejaVuSans-Oblique-4d"/>
      <use transform="translate(511.586914 -26.4375)scale(0.7)" xlink:href="#DejaVuSans-Oblique-4c"/>
      <use transform="translate(550.585938 -26.4375)scale(0.7)" xlink:href="#DejaVuSans-Oblique-45"/>
      <use transform="translate(597.548828 0.90625)" xlink:href="#DejaVuSans-5d"/>
      <use transform="translate(656.044922 0.90625)" xlink:href="#DejaVuSans-2212"/>
      <use transform="translate(759.316406 0.90625)" xlink:href="#DejaVuSans-Oblique-3b2"/>
      <use transform="translate(830.669974 39.1875)scale(0.7)" xlink:href="#DejaVuSans-2a"/>
      <use transform="translate(868.404349 0.90625)" xlink:href="#DejaVuSans-29"/>
     </g>
    </g>
   </g>
   <g id="patch_3">
    <path d="M 49.482813 121.968 
L 49.482813 0 
" style="fill:none;stroke:#000000;stroke-linecap:square;stroke-linejoin:miter;stroke-width:0.8;"/>
   </g>
   <g id="patch_4">
    <path d="M 216.882812 121.968 
L 216.882812 0 
" style="fill:none;stroke:#000000;stroke-linecap:square;stroke-linejoin:miter;stroke-width:0.8;"/>
   </g>
   <g id="patch_5">
    <path d="M 49.482813 121.968 
L 216.882812 121.968 
" style="fill:none;stroke:#000000;stroke-linecap:square;stroke-linejoin:miter;stroke-width:0.8;"/>
   </g>
   <g id="patch_6">
    <path d="M 49.482813 0 
L 216.882812 0 
" style="fill:none;stroke:#000000;stroke-linecap:square;stroke-linejoin:miter;stroke-width:0.8;"/>
   </g>
   <g id="patch_7">
    <path d="M 122.234558 21.737153 
Q 109.986793 32.485838 98.053776 33.212914 
" style="fill:none;stroke:#000000;stroke-linecap:round;stroke-width:0.75;"/>
    <path d="M 102.168006 34.965944 
L 98.053776 33.212914 
L 101.924738 30.973348 
" style="fill:none;stroke:#000000;stroke-linecap:round;stroke-width:0.75;"/>
   </g>
   <g id="text_12">
    <!-- $E[\hat{\beta}_{MLE}^{(N)}]-\beta^{*} \simeq \frac{1}{4N}$ -->
    <g transform="translate(125.723503 22.212377)scale(0.1 -0.1)">
     <defs>
      <path d="M 4684 3163 
L 4684 2606 
Q 4356 2359 4076 2251 
Q 3797 2144 3494 2144 
Q 3150 2144 2694 2328 
L 2641 2350 
Q 2622 2356 2575 2375 
Q 2091 2566 1797 2566 
Q 1522 2566 1253 2447 
Q 984 2328 678 2069 
L 678 2625 
Q 1006 2869 1286 2976 
Q 1566 3084 1869 3084 
Q 2213 3084 2672 2900 
L 2719 2881 
L 2788 2853 
Q 3272 2663 3566 2663 
Q 3834 2663 4098 2780 
Q 4363 2897 4684 3163 
z
M 678 1631 
L 4684 1631 
L 4684 1100 
L 678 1100 
L 678 1631 
z
" id="DejaVuSans-2243" transform="scale(0.015625)"/>
      <path d="M 2419 4116 
L 825 1625 
L 2419 1625 
L 2419 4116 
z
M 2253 4666 
L 3047 4666 
L 3047 1625 
L 3713 1625 
L 3713 1100 
L 3047 1100 
L 3047 0 
L 2419 0 
L 2419 1100 
L 313 1100 
L 313 1709 
L 2253 4666 
z
" id="DejaVuSans-34" transform="scale(0.015625)"/>
     </defs>
     <use transform="translate(0 0.90625)" xlink:href="#DejaVuSans-Oblique-45"/>
     <use transform="translate(63.183594 0.90625)" xlink:href="#DejaVuSans-5b"/>
     <use transform="translate(166.72998 34.015625)" xlink:href="#DejaVuSans-302"/>
     <use transform="translate(102.197266 0.90625)" xlink:href="#DejaVuSans-Oblique-3b2"/>
     <use transform="translate(166.972656 46.328125)scale(0.7)" xlink:href="#DejaVuSans-28"/>
     <use transform="translate(194.282227 46.328125)scale(0.7)" xlink:href="#DejaVuSans-Oblique-4e"/>
     <use transform="translate(246.645508 46.328125)scale(0.7)" xlink:href="#DejaVuSans-29"/>
     <use transform="translate(166.972656 -26.4375)scale(0.7)" xlink:href="#DejaVuSans-Oblique-4d"/>
     <use transform="translate(227.368164 -26.4375)scale(0.7)" xlink:href="#DejaVuSans-Oblique-4c"/>
     <use transform="translate(266.367188 -26.4375)scale(0.7)" xlink:href="#DejaVuSans-Oblique-45"/>
     <use transform="translate(313.330078 0.90625)" xlink:href="#DejaVuSans-5d"/>
     <use transform="translate(371.826172 0.90625)" xlink:href="#DejaVuSans-2212"/>
     <use transform="translate(475.097656 0.90625)" xlink:href="#DejaVuSans-Oblique-3b2"/>
     <use transform="translate(546.451224 39.1875)scale(0.7)" xlink:href="#DejaVuSans-2a"/>
     <use transform="translate(603.668021 0.90625)" xlink:href="#DejaVuSans-2243"/>
     <use transform="translate(732.939505 44.703125)scale(0.7)" xlink:href="#DejaVuSans-31"/>
     <use transform="translate(706.939505 -37.58125)scale(0.7)" xlink:href="#DejaVuSans-34"/>
     <use transform="translate(751.475638 -37.58125)scale(0.7)" xlink:href="#DejaVuSans-Oblique-4e"/>
     <path d="M 706.939505 19.703125 
L 706.939505 25.953125 
L 803.838919 25.953125 
L 803.838919 19.703125 
L 706.939505 19.703125 
z
"/>
    </g>
   </g>
  </g>
 </g>
 <defs>
  <clipPath id="pd3dab1e52c">
   <rect height="121.968" width="167.4" x="49.482813" y="0"/>
  </clipPath>
 </defs>
</svg>
